<svg width="32" height="32" viewBox="0 0 32 32" fill="none" xmlns="http://www.w3.org/2000/svg">
<rect width="32" height="32" rx="16" fill="white"/>
<path d="M1 12.4898C1 10.5682 2.10652 9 4.49802 9C6.88952 9 8 10.5682 8 12.4898V19.5102C8 21.4359 6.89348 23 4.49802 23C2.10255 23 1 21.4359 1 19.5102V12.4898ZM3.28442 19.4533C3.28442 20.473 3.5779 20.9646 4.49802 20.9646C5.41813 20.9646 5.71558 20.473 5.71558 19.4533V12.5467C5.71558 11.527 5.41813 11.0313 4.49802 11.0313C3.5779 11.0313 3.28442 11.527 3.28442 12.5467V19.4533Z" fill="#FF3300"/>
<path d="M13.2272 12.5488C13.1364 11.378 12.5287 11.0325 12.0158 11.0325C11.2818 11.0325 10.8794 11.5203 10.8794 12.374C10.8794 14.6951 15.5 15.8089 15.5 19.5081C15.5 21.7561 14.0321 23 11.9092 23C9.78636 23 8.59076 21.2642 8.5 19.2236L10.6623 18.9024C10.7531 20.2846 11.2818 20.9634 12.0158 20.9634C12.7497 20.9634 13.3377 20.5285 13.3377 19.7154C13.3377 17.0163 8.71702 16.3008 8.71702 12.3984C8.71702 10.2195 9.99944 9 12.2368 9C14.0874 9 15.1883 10.378 15.3935 12.3049L13.2272 12.5488Z" fill="#FF3300"/>
<path d="M23.8 23V9H27.1151C29.9652 9 31.3 10.1479 31.3 13.1324C31.3 16.1169 29.9812 17.2606 27.1312 17.2606H26.109V23H23.8ZM26.109 15.2821H27.0029C28.5141 15.2821 28.9791 14.7979 28.9791 13.1324C28.9791 11.4669 28.5141 10.9785 27.0029 10.9785H26.109V15.2821Z" fill="#FF3300"/>
<path d="M17.7881 23H15.5L18.03 9H20.9618L23.5 23H21.216L20.806 19.8986H18.2063L17.7881 23ZM18.5507 17.8032H20.4534L19.5185 11.7925H19.4815L18.5507 17.8032Z" fill="#FF3300"/>
</svg>
