<svg width="950" height="417" viewBox="0 0 950 417" fill="none" xmlns="http://www.w3.org/2000/svg">
<path opacity="0.1" d="M249.235 407.71L249.499 314.625L307.468 314.79L307.635 255.706L249.667 255.542L250.371 7.50265L154.5 7.23048L1.07653 252.607L0.902468 313.92L178.153 314.423L177.889 407.507L249.235 407.71ZM178.321 255.339L70.1867 255.032L177.7 81.43L178.814 81.4332L178.321 255.339ZM478.914 415.05C568.655 415.305 620.137 344.105 620.515 210.888C620.889 79.3438 572.616 1.72874 480.089 1.46606C387.004 1.20181 338.849 78.5431 338.475 210.087C338.097 343.304 389.174 414.796 478.914 415.05ZM479.079 357.082C433.373 356.952 411.215 308.396 411.493 210.295C411.783 108.292 434.22 58.7476 479.926 58.8774C525.632 59.0071 547.787 108.678 547.497 210.681C547.218 308.782 524.785 357.212 479.079 357.082ZM890.342 409.53L890.606 316.445L948.575 316.61L948.742 257.526L890.774 257.362L891.478 9.32268L795.607 9.05052L642.184 254.427L642.009 315.74L819.26 316.243L818.996 409.327L890.342 409.53ZM819.428 257.159L711.294 256.852L818.807 83.25L819.921 83.2532L819.428 257.159Z" fill="url(#paint0_linear_608_3497)"/>
<defs>
<linearGradient id="paint0_linear_608_3497" x1="934.489" y1="-2510.65" x2="143.359" y2="-2498.14" gradientUnits="userSpaceOnUse">
<stop offset="0.12663" stop-color="#FF3300"/>
<stop offset="0.927575" stop-color="#FF9900"/>
</linearGradient>
</defs>
</svg>
