<svg width="470" height="492" viewBox="0 0 467 492" fill="none" xmlns="http://www.w3.org/2000/svg">
<path fill-rule="evenodd" clip-rule="evenodd" d="M243.889 204.676C294.995 199.111 342.125 227.992 380.761 261.905C422.621 298.646 475.797 344.13 465.029 398.777C454.404 452.7 381.65 460.436 335.701 490.589C304.944 510.773 280.639 542.213 243.889 543.895C205.804 545.638 171.076 525.478 143.27 499.396C114.397 472.314 90.9377 438.324 89.1778 398.777C87.3485 357.673 108.252 320.959 133.897 288.785C163.803 251.264 196.189 209.87 243.889 204.676Z" fill="url(#paint0_linear_469_3320)"/>
<path fill-rule="evenodd" clip-rule="evenodd" d="M47.6168 0.0516856C124.025 2.07016 177.969 77.2958 201.389 161.922C224.573 245.695 217.758 342.726 156.934 395.064C94.7506 448.572 9.99994 433.341 -52.5764 380.456C-115.153 327.57 -151.925 239.215 -129.267 153.187C-105.463 62.8119 -33.6206 -2.09436 47.6168 0.0516856Z" fill="url(#paint1_linear_469_3320)"/>
<g clip-path="url(#clip0_469_3320)">
<path d="M99.1943 407.351C141.085 407.351 175.044 404.773 175.044 401.593C175.044 398.413 141.085 395.835 99.1943 395.835C57.3035 395.835 23.3442 398.413 23.3442 401.593C23.3442 404.773 57.3035 407.351 99.1943 407.351Z" fill="#E6E6E6"/>
<path d="M81.3226 201.347C94.5228 195.735 110.964 199.29 127.02 201.758C127.17 198.77 128.981 195.133 127.084 193.048C124.779 190.515 124.991 187.853 126.378 185.176C129.925 178.331 124.843 171.048 119.713 164.992C118.556 163.63 117.095 162.56 115.447 161.868C113.799 161.177 112.011 160.884 110.229 161.013L100.725 161.691C98.412 161.856 96.2049 162.724 94.3987 164.177C92.5926 165.63 91.2735 167.6 90.618 169.823V169.823C88.3486 172.908 87.134 175.984 87.8987 179.045C84.4995 181.367 83.9284 184.17 85.4559 187.329C86.7511 189.319 86.7373 191.255 85.397 193.138C83.6367 195.539 82.2885 198.215 81.4076 201.058L81.3226 201.347Z" fill="#2F2E41"/>
<path d="M395.014 371.474H125.978C123.585 371.474 121.291 370.524 119.599 368.833C117.907 367.142 116.957 364.848 116.957 362.457C214.482 351.127 310.175 351.127 404.035 362.457C404.035 364.848 403.084 367.142 401.392 368.833C399.701 370.524 397.406 371.474 395.014 371.474Z" fill="#2F2E41"/>
<path d="M404.035 362.987L116.957 362.457L150.228 306.499L150.387 306.234V182.909C150.387 181.412 150.682 179.93 151.255 178.547C151.828 177.164 152.668 175.908 153.727 174.849C154.786 173.791 156.043 172.951 157.427 172.378C158.81 171.806 160.293 171.511 161.791 171.511H357.609C359.106 171.511 360.589 171.806 361.973 172.378C363.356 172.951 364.613 173.791 365.672 174.849C366.731 175.908 367.571 177.164 368.144 178.547C368.717 179.93 369.012 181.412 369.012 182.909V307.082L404.035 362.987Z" fill="#3F3D56"/>
<path d="M161.531 179.467C160.546 179.468 159.602 179.86 158.905 180.556C158.209 181.252 157.817 182.196 157.816 183.18V295.626C157.817 296.61 158.209 297.554 158.905 298.25C159.602 298.946 160.546 299.337 161.531 299.339H359.461C360.445 299.337 361.389 298.946 362.086 298.25C362.782 297.554 363.174 296.61 363.175 295.626V183.18C363.174 182.196 362.782 181.252 362.086 180.556C361.389 179.86 360.445 179.468 359.461 179.467H161.531Z" fill="white"/>
<path d="M162.36 314.19C162.056 314.19 161.758 314.278 161.502 314.442C161.245 314.606 161.041 314.84 160.914 315.116L150.662 337.393C150.55 337.635 150.501 337.902 150.52 338.168C150.538 338.434 150.623 338.692 150.767 338.916C150.911 339.141 151.11 339.326 151.344 339.454C151.578 339.582 151.841 339.649 152.108 339.649H367.7C367.972 339.649 368.239 339.58 368.476 339.448C368.713 339.316 368.912 339.125 369.055 338.895C369.197 338.664 369.278 338.4 369.291 338.129C369.303 337.858 369.245 337.589 369.124 337.346L357.98 315.069C357.849 314.805 357.646 314.582 357.394 314.426C357.143 314.271 356.853 314.189 356.557 314.19H162.36Z" fill="#2F2E41"/>
<path d="M259.7 177.611C261.018 177.611 262.088 176.542 262.088 175.224C262.088 173.906 261.018 172.837 259.7 172.837C258.381 172.837 257.312 173.906 257.312 175.224C257.312 176.542 258.381 177.611 259.7 177.611Z" fill="white"/>
<path d="M238.509 343.892C238.159 343.893 237.819 344.008 237.541 344.221C237.263 344.434 237.063 344.732 236.972 345.07L234.4 354.617C234.336 354.853 234.328 355.1 234.375 355.34C234.423 355.579 234.525 355.805 234.673 355.999C234.822 356.193 235.013 356.35 235.232 356.458C235.452 356.566 235.693 356.622 235.937 356.622H284.843C285.097 356.622 285.347 356.562 285.572 356.445C285.798 356.329 285.993 356.16 286.14 355.954C286.287 355.747 286.382 355.508 286.418 355.257C286.455 355.006 286.43 354.75 286.347 354.51L283.041 344.963C282.932 344.651 282.729 344.379 282.46 344.188C282.19 343.996 281.867 343.893 281.536 343.892H238.509Z" fill="#2F2E41"/>
<path d="M369.012 304.377V306.499H150.228L150.393 306.234V304.377H369.012Z" fill="#2F2E41"/>
<path d="M362.91 216.861C383.424 216.861 400.055 200.238 400.055 179.732C400.055 159.227 383.424 142.604 362.91 142.604C342.395 142.604 325.765 159.227 325.765 179.732C325.765 200.238 342.395 216.861 362.91 216.861Z" fill="#626670"/>
<path d="M378.298 195.91H347.521C346.958 195.909 346.419 195.685 346.021 195.288C345.623 194.89 345.399 194.35 345.398 193.788V175.224C345.399 174.661 345.623 174.122 346.021 173.724C346.419 173.326 346.958 173.103 347.521 173.102H378.298C378.861 173.103 379.401 173.326 379.799 173.724C380.196 174.122 380.42 174.661 380.421 175.224V193.788C380.42 194.35 380.196 194.89 379.799 195.288C379.401 195.685 378.861 195.909 378.298 195.91ZM347.521 175.224V193.788H378.3L378.298 175.224L347.521 175.224Z" fill="white"/>
<path d="M372.461 175.224H353.358V166.737C353.358 160.59 357.375 156.129 362.91 156.129C368.444 156.129 372.461 160.59 372.461 166.737L372.461 175.224ZM355.481 173.102H370.339V166.737C370.339 161.741 367.284 158.251 362.91 158.251C358.536 158.251 355.481 161.741 355.481 166.737L355.481 173.102Z" fill="white"/>
<path d="M362.91 186.097C364.082 186.097 365.032 185.147 365.032 183.976C365.032 182.804 364.082 181.854 362.91 181.854C361.737 181.854 360.787 182.804 360.787 183.976C360.787 185.147 361.737 186.097 362.91 186.097Z" fill="white"/>
<path d="M336.979 261.198H184.012C183.261 261.197 182.541 260.898 182.01 260.368C181.479 259.837 181.18 259.117 181.179 258.367V220.439C181.18 219.688 181.479 218.969 182.01 218.438C182.541 217.907 183.261 217.608 184.012 217.607H336.979C337.73 217.608 338.45 217.907 338.981 218.438C339.512 218.969 339.811 219.688 339.812 220.439V258.367C339.811 259.117 339.512 259.837 338.981 260.368C338.45 260.898 337.73 261.197 336.979 261.198V261.198ZM184.012 218.74C183.561 218.741 183.129 218.92 182.811 219.238C182.492 219.557 182.313 219.988 182.312 220.439V258.367C182.313 258.817 182.492 259.249 182.811 259.567C183.129 259.886 183.561 260.065 184.012 260.065H336.979C337.43 260.065 337.862 259.886 338.181 259.567C338.499 259.249 338.678 258.817 338.679 258.367V220.439C338.678 219.988 338.499 219.557 338.181 219.238C337.862 218.92 337.43 218.74 336.979 218.74L184.012 218.74Z" fill="#E6E6E6"/>
<path d="M207.78 249.481C214.153 249.481 219.319 244.317 219.319 237.947C219.319 231.577 214.153 226.414 207.78 226.414C201.407 226.414 196.241 231.577 196.241 237.947C196.241 244.317 201.407 249.481 207.78 249.481Z" fill="#E6E6E6"/>
<path d="M234.43 230.258C234.177 230.258 233.926 230.307 233.693 230.404C233.459 230.5 233.247 230.642 233.068 230.82C232.889 230.999 232.747 231.211 232.65 231.444C232.553 231.678 232.503 231.928 232.503 232.181C232.503 232.433 232.553 232.684 232.65 232.917C232.747 233.15 232.889 233.362 233.068 233.541C233.247 233.719 233.459 233.861 233.693 233.957C233.926 234.054 234.177 234.103 234.43 234.103H325.093C325.603 234.103 326.093 233.9 326.453 233.54C326.814 233.179 327.016 232.69 327.016 232.181C327.016 231.671 326.814 231.182 326.453 230.821C326.093 230.461 325.603 230.258 325.093 230.258H234.43Z" fill="#E6E6E6"/>
<path d="M234.43 241.792C233.92 241.792 233.43 241.995 233.07 242.355C232.709 242.716 232.506 243.205 232.506 243.714C232.506 244.224 232.709 244.713 233.07 245.074C233.43 245.434 233.92 245.637 234.43 245.637H273.442C273.953 245.637 274.442 245.434 274.802 245.074C275.163 244.713 275.366 244.224 275.366 243.714C275.366 243.205 275.163 242.716 274.802 242.355C274.442 241.995 273.953 241.792 273.442 241.792H234.43Z" fill="#E6E6E6"/>
<path d="M149.851 242.57L121.574 257.596L121.216 245.074C130.446 243.534 139.227 240.853 147.346 236.487L150.303 229.184C150.626 228.388 151.149 227.69 151.823 227.158C152.497 226.625 153.298 226.277 154.147 226.148C154.996 226.018 155.864 226.111 156.666 226.418C157.468 226.725 158.177 227.236 158.722 227.899V227.899C159.52 228.87 159.918 230.107 159.837 231.361C159.756 232.614 159.202 233.79 158.286 234.65L149.851 242.57Z" fill="#FFB8B8"/>
<path d="M80.7589 329.328C80.5526 328.572 80.5088 327.781 80.6304 327.007C80.752 326.232 81.0362 325.492 81.4643 324.836L87.676 315.307C89.1452 313.053 91.3996 311.425 94.0017 310.739C96.6039 310.053 99.3683 310.357 101.759 311.593V311.593C99.148 316.035 99.512 319.931 102.66 323.318C97.7729 325.702 93.2559 328.78 89.2491 332.456C88.5177 332.955 87.6776 333.271 86.799 333.379C85.9204 333.488 85.0286 333.385 84.1979 333.079C83.3673 332.772 82.6218 332.272 82.0236 331.62C81.4254 330.968 80.9918 330.182 80.7589 329.328V329.328Z" fill="#2F2E41"/>
<path d="M151.139 316.869C150.199 318.435 148.873 319.734 147.286 320.639C145.7 321.545 143.907 322.028 142.08 322.042L100.814 322.354L99.0242 311.979L117.279 306.612L101.888 294.805L118.711 275.128L149.267 303.594C151.053 305.258 152.213 307.484 152.554 309.901C152.895 312.317 152.396 314.777 151.139 316.869V316.869Z" fill="#2F2E41"/>
<path d="M94.3709 387.828H84.7065C76.0293 328.376 67.1968 268.757 93.2971 246.505L124.08 251.514L120.143 277.632L102.961 297.31L94.3709 387.828Z" fill="#2F2E41"/>
<path d="M102.866 401.296C102.11 401.502 101.318 401.546 100.543 401.424C99.7687 401.303 99.0285 401.019 98.3715 400.591L87.878 399.181C85.6231 397.712 83.9943 395.459 83.3077 392.858C82.621 390.257 82.9254 387.494 84.1618 385.105C88.6057 387.714 92.5039 387.35 95.8915 384.203C98.285 389.034 102.229 388.739 105.995 392.809C106.494 393.54 106.811 394.38 106.919 395.258C107.027 396.136 106.924 397.028 106.618 397.858C106.312 398.688 105.812 399.433 105.159 400.031C104.507 400.629 103.72 401.063 102.866 401.296V401.296Z" fill="#2F2E41"/>
<path d="M117.279 206.792L99.3821 202.498C102.354 196.417 102.599 189.65 101.172 182.463L113.342 182.105C113.723 191.042 114.877 199.392 117.279 206.792Z" fill="#FFB8B8"/>
<path d="M122.198 262.287C109.169 271.161 99.9639 262.59 92.9391 249.368C93.9153 241.276 92.3347 231.594 89.4074 221.073C88.1056 216.432 88.5916 211.472 90.7696 207.173C92.9476 202.873 96.6592 199.545 101.172 197.847V197.847L116.563 204.287C129.632 214.935 132.205 226.469 127.301 238.634L122.198 262.287Z" fill="#626670"/>
<path d="M84.7065 215.736L70.3889 223.25L95.8026 238.276L99.3388 246.995C99.5748 247.577 99.6898 248.201 99.6767 248.829C99.6636 249.456 99.5227 250.075 99.2627 250.646C99.0027 251.218 98.6289 251.731 98.1641 252.153C97.6994 252.576 97.1534 252.899 96.5595 253.104V253.104C95.8845 253.337 95.1646 253.41 94.4565 253.318C93.7483 253.226 93.071 252.972 92.4776 252.575C91.8842 252.178 91.3909 251.649 91.0362 251.029C90.6815 250.41 90.4751 249.716 90.4332 249.004L90.0756 242.927L57.7751 232.273C56.6868 231.914 55.6945 231.312 54.8734 230.513C54.0522 229.714 53.4238 228.739 53.0356 227.661V227.661C52.4698 226.09 52.441 224.376 52.9537 222.787C53.4664 221.198 54.4917 219.823 55.8692 218.879L81.843 201.067L84.7065 215.736Z" fill="#FFB8B8"/>
<path d="M99.0241 217.167C93.0528 214.552 87.6229 217.393 80.7692 219.672L79.6954 200.71C86.5009 197.084 92.9894 196.107 99.0242 198.921L99.0241 217.167Z" fill="#626670"/>
<path d="M106.167 191.498C112.478 191.498 117.594 186.384 117.594 180.076C117.594 173.769 112.478 168.655 106.167 168.655C99.8564 168.655 94.7406 173.769 94.7406 180.076C94.7406 186.384 99.8564 191.498 106.167 191.498Z" fill="#FFB8B8"/>
<path d="M119.837 178.635C108.524 179.743 99.9032 177.893 94.3937 172.628V168.387H118.877L119.837 178.635Z" fill="#2F2E41"/>
</g>
<defs>
<linearGradient id="paint0_linear_469_3320" x1="436.694" y1="-873.686" x2="140.25" y2="-869.208" gradientUnits="userSpaceOnUse">
<stop offset="0.12663" stop-color="#FF9900"/>
<stop offset="0.927575" stop-color="#FF3300"/>
</linearGradient>
<linearGradient id="paint1_linear_469_3320" x1="38.8447" y1="-2.51978e-10" x2="38.8537" y2="554.105" gradientUnits="userSpaceOnUse">
<stop stop-color="#FF3300"/>
<stop offset="1" stop-color="#CC2900" stop-opacity="0.87"/>
</linearGradient>
<clipPath id="clip0_469_3320">
<rect width="380.69" height="264.747" fill="white" transform="translate(23.3442 142.604)"/>
</clipPath>
</defs>
</svg>
