<svg xmlns="http://www.w3.org/2000/svg" viewBox="0 0 78.96 34.46"><defs><style>.cls-1{fill:#e73e2a;}</style></defs><g id="Layer_2" data-name="Layer 2"><g id="Layer_1-2" data-name="Layer 1"><path class="cls-1" d="M0,8.59C0,3.86,2.79,0,8.82,0s8.83,3.86,8.83,8.59V25.87c0,4.74-2.79,8.59-8.83,8.59S0,30.61,0,25.87ZM5.76,25.73c0,2.51.74,3.72,3.06,3.72s3.07-1.21,3.07-3.72v-17C11.89,6.22,11.14,5,8.82,5S5.76,6.22,5.76,8.73Z"/><path class="cls-1" d="M32.33,8.73C32.1,5.85,30.56,5,29.26,5c-1.86,0-2.88,1.2-2.88,3.3,0,5.71,11.71,8.45,11.71,17.55,0,5.53-3.72,8.59-9.1,8.59s-8.41-4.27-8.64-9.29l5.48-.79c.23,3.4,1.57,5.07,3.43,5.07s3.35-1.07,3.35-3.07c0-6.64-11.71-8.4-11.71-18C20.9,3,24.15,0,29.82,0c4.69,0,7.48,3.39,8,8.13Z"/><path class="cls-1" d="M44.41,34H38.83L45,.46h7.15L58.34,34H52.77l-1-7.43H45.43Zm1.86-12.45h4.64L48.63,7.15h-.09Z"/><path class="cls-1" d="M60.29,34V.46h8.27C75.67.46,79,3.21,79,10.36s-3.29,9.89-10.4,9.89H66.05V34Zm5.76-18.49h2.23c3.77,0,4.93-1.16,4.93-5.15S72.05,5.2,68.28,5.2H66.05Z"/></g></g></svg>