<svg width="265" height="46" viewBox="0 0 265 46" fill="none" xmlns="http://www.w3.org/2000/svg">
<g clip-path="url(#clip0_440_3647)">
<path d="M0 11.4666C0 5.15264 3.71011 0 11.7287 0C19.7473 0 23.4707 5.15264 23.4707 11.4666V34.5334C23.4707 40.8607 19.7606 46 11.7287 46C3.69681 46 0 40.8607 0 34.5334V11.4666ZM7.65957 34.3465C7.65957 37.697 8.64362 39.3122 11.7287 39.3122C14.8138 39.3122 15.8112 37.697 15.8112 34.3465V11.6535C15.8112 8.30296 14.8138 6.67441 11.7287 6.67441C8.64362 6.67441 7.65957 8.30296 7.65957 11.6535V34.3465Z" fill="#FF3300"/>
<path d="M42.992 11.6535C42.6862 7.80905 40.6383 6.67441 38.9096 6.67441C36.4362 6.67441 35.0798 8.27626 35.0798 11.0795C35.0798 18.7017 50.6516 22.3593 50.6516 34.5067C50.6516 41.8886 45.7048 45.9733 38.5505 45.9733C31.3963 45.9733 27.367 40.2734 27.0612 33.5723L34.3484 32.5177C34.6542 37.0563 36.4362 39.2856 38.9096 39.2856C41.383 39.2856 43.3643 37.8572 43.3643 35.1875C43.3643 26.3239 27.7925 23.9745 27.7925 11.1596C27.7925 4.00464 32.1143 0 39.6542 0C45.8909 0 49.601 4.52525 50.2925 10.8526L42.992 11.6535Z" fill="#FF3300"/>
<path d="M59.0558 45.3859H51.6356L59.8404 0.614014H69.3484L77.5798 45.3859H70.1729L68.8431 35.4678H60.4122L59.0558 45.3859ZM61.5292 28.7667H67.6995L64.6675 9.54437H64.5479L61.5292 28.7667Z" fill="#FF3300"/>
<path d="M80.1729 45.3859V0.614014H91.1702C100.625 0.614014 105.053 4.28494 105.053 13.8293C105.053 23.3737 100.678 27.0313 91.2234 27.0313H87.8324V45.3859H80.1729ZM87.8324 20.704H90.7979C95.8112 20.704 97.3537 19.1555 97.3537 13.8293C97.3537 8.50316 95.8112 6.94135 90.7979 6.94135H87.8324V20.704Z" fill="#FF3300"/>
</g>
<g clip-path="url(#clip1_440_3647)">
<path d="M117.462 5.06712C117.411 4.37358 117.513 3.67729 117.76 3.02751C118.007 2.37774 118.393 1.79036 118.891 1.30695C119.389 0.823535 119.986 0.455894 120.642 0.23004C121.297 0.00418632 121.993 -0.0743608 122.682 -4.3415e-05C123.367 -0.066614 124.058 0.0177101 124.707 0.24704C125.356 0.47637 125.948 0.845177 126.44 1.3277C126.933 1.81023 127.314 2.39485 127.558 3.04072C127.802 3.6866 127.903 4.37817 127.853 5.06712V15.2509C127.903 15.9399 127.802 16.6314 127.558 17.2773C127.314 17.9232 126.933 18.5078 126.44 18.9903C125.948 19.4728 125.356 19.8417 124.707 20.071C124.058 20.3003 123.367 20.3846 122.682 20.3181C121.993 20.3924 121.297 20.3138 120.642 20.088C119.986 19.8621 119.389 19.4945 118.891 19.0111C118.393 18.5277 118.007 17.9403 117.76 17.2905C117.513 16.6407 117.411 15.9444 117.462 15.2509V5.06712ZM120.86 15.1767C120.86 16.6598 121.303 17.3519 122.682 17.3519C124.061 17.3519 124.455 16.6598 124.455 15.1767V5.14128C124.455 3.6582 124.036 2.9661 122.682 2.9661C121.328 2.9661 120.86 3.6582 120.86 5.14128V15.1767Z" fill="#1E2533"/>
<path d="M130.291 0.27193H135.215C135.925 0.169246 136.65 0.233772 137.331 0.460411C138.012 0.68705 138.632 1.0696 139.14 1.57783C139.649 2.08606 140.033 2.70607 140.262 3.38886C140.491 4.07166 140.559 4.79855 140.46 5.51212C140.513 6.36932 140.306 7.22252 139.866 7.95936C139.427 8.6962 138.775 9.28214 137.997 9.64001C138.897 10.0149 139.65 10.6736 140.143 11.5165C140.636 12.3594 140.842 13.3406 140.73 14.3117C140.73 17.5745 139.302 20.0462 135.437 20.0462H130.291V0.27193ZM133.688 8.3794H134.895C135.213 8.38799 135.529 8.32853 135.822 8.20495C136.116 8.08138 136.379 7.89653 136.596 7.66271C136.813 7.42888 136.977 7.15143 137.079 6.84881C137.18 6.5462 137.216 6.22535 137.185 5.90761C137.185 4.07849 136.471 3.11449 134.969 3.11449H133.688V8.3794ZM133.688 17.3026H135.092C136.889 17.3026 137.554 16.2644 137.554 14.2623C137.554 12.2601 136.791 11.1725 134.698 11.1725H133.688V17.3026Z" fill="#1E2533"/>
<path d="M146.492 20.0462H143.094V0.271851H147.846C151.638 0.271851 153.583 1.90323 153.583 6.10527C153.583 9.26916 152.352 10.5792 151.121 11.0489L153.977 19.9967H150.53L148.068 11.8151C147.625 11.8151 146.911 11.8151 146.32 11.8151L146.492 20.0462ZM146.492 9.14557H147.699C149.521 9.14557 150.161 8.45347 150.161 6.10527C150.161 3.75707 149.496 3.06497 147.699 3.06497H146.492V9.14557Z" fill="#1E2533"/>
<path d="M157.892 20.0462H154.618L158.237 0.271851H162.447L166.067 20.0462H162.792L162.201 15.6711H158.483L157.892 20.0462ZM158.976 12.6308H161.783L160.453 4.15256L158.976 12.6308Z" fill="#1E2533"/>
<path d="M178.6 5.1413C178.6 3.43577 177.566 2.96613 176.802 2.96613C176.039 2.96613 175.103 3.65823 175.103 4.89413C175.103 8.28048 181.998 9.8377 181.998 15.2509C182.019 15.9565 181.89 16.6585 181.619 17.3098C181.347 17.961 180.94 18.5464 180.424 19.0265C179.909 19.5065 179.297 19.8702 178.63 20.093C177.962 20.3158 177.255 20.3925 176.556 20.3181C175.874 20.2833 175.205 20.1137 174.587 19.8189C173.97 19.5241 173.417 19.11 172.96 18.6002C172.502 18.0905 172.149 17.4951 171.922 16.8483C171.694 16.2015 171.595 15.5158 171.632 14.8307L174.857 14.3611C175.005 16.3632 175.793 17.3272 176.876 17.3272C177.129 17.3642 177.386 17.3444 177.63 17.2693C177.874 17.1943 178.098 17.0658 178.287 16.8932C178.475 16.7206 178.623 16.5081 178.72 16.2711C178.816 16.0341 178.86 15.7786 178.846 15.5228C178.846 11.6174 171.976 10.5792 171.976 4.89413C171.921 4.20268 172.022 3.50766 172.271 2.86059C172.52 2.21352 172.911 1.63099 173.414 1.15618C173.918 0.681368 174.522 0.326456 175.181 0.11775C175.84 -0.0909548 176.537 -0.148101 177.221 -0.0494522C177.843 -0.0462612 178.458 0.0806772 179.03 0.324019C179.603 0.56736 180.122 0.922273 180.557 1.36822C180.992 1.81417 181.335 2.34231 181.565 2.92206C181.795 3.50182 181.909 4.1217 181.899 4.74582L178.6 5.1413Z" fill="#1E2533"/>
<path d="M183.721 5.06716C183.676 4.3815 183.779 3.69415 184.023 3.05217C184.267 2.41018 184.647 1.82871 185.135 1.34753C185.624 0.866357 186.211 0.496838 186.855 0.264261C187.499 0.0316848 188.185 -0.0584598 188.867 -4.28446e-06C189.552 -0.0665749 190.243 0.0177493 190.892 0.247079C191.542 0.476409 192.133 0.845216 192.625 1.32774C193.118 1.81027 193.499 2.39489 193.743 3.04076C193.987 3.68664 194.088 4.37821 194.038 5.06716V15.2509C194.088 15.9399 193.987 16.6315 193.743 17.2773C193.499 17.9232 193.118 18.5078 192.625 18.9904C192.133 19.4729 191.542 19.8417 190.892 20.071C190.243 20.3004 189.552 20.3847 188.867 20.3181C188.181 20.3842 187.489 20.2997 186.839 20.0705C186.189 19.8413 185.596 19.473 185.102 18.9909C184.608 18.5089 184.224 17.9247 183.977 17.2789C183.73 16.6331 183.626 15.9411 183.672 15.2509L183.721 5.06716ZM187.095 15.1768C187.095 16.6599 187.538 17.352 188.917 17.352C190.295 17.352 190.714 16.6599 190.714 15.1768V5.14132C190.714 3.65824 190.271 2.96614 188.917 2.96614C187.562 2.96614 187.095 3.65824 187.095 5.14132V15.1768Z" fill="#1E2533"/>
<path d="M203.345 6.87154V5.33903C203.345 3.65821 202.582 2.86724 201.72 2.86724C200.366 2.86724 199.923 3.55934 199.923 5.04242V15.1768C199.923 16.6598 200.366 17.3519 201.72 17.3519C203.075 17.3519 203.345 16.6598 203.345 15.3745V12.9027H206.743V15.1768C206.743 16.5338 206.206 17.8352 205.25 18.7947C204.295 19.7543 202.998 20.2934 201.646 20.2934C200.295 20.2934 198.998 19.7543 198.042 18.7947C197.087 17.8352 196.55 16.5338 196.55 15.1768V5.06713C196.518 4.38821 196.633 3.71047 196.885 3.07976C197.137 2.44905 197.521 1.88009 198.012 1.41137C198.502 0.942648 199.087 0.585103 199.727 0.362923C200.366 0.140743 201.046 0.0591128 201.72 0.123554C202.411 0.12008 203.094 0.262338 203.726 0.541098C204.358 0.819858 204.924 1.22889 205.389 1.74166C205.853 2.25443 206.205 2.85947 206.421 3.51754C206.638 4.1756 206.714 4.87198 206.645 5.56149V6.99513L203.345 6.87154Z" fill="#1E2533"/>
<path d="M209.821 20.0462V0.271851H213.194V20.0462H209.821Z" fill="#1E2533"/>
<path d="M218.094 20.0462H214.795L218.414 0.271851H222.6L226.244 20.0462H222.994L222.403 15.6711H218.685L218.094 20.0462ZM219.178 12.6308H221.911L220.556 4.15256L219.178 12.6308Z" fill="#1E2533"/>
<path d="M227.229 20.0462V0.271851H230.726V17.08H236.044V20.0462H227.229Z" fill="#1E2533"/>
<path d="M118.275 45.7281H115L118.62 25.9537H122.83L126.449 45.7281H123.175L122.584 41.3283H118.866L118.275 45.7281ZM119.358 38.3127H122.091L120.762 29.8097L119.358 38.3127Z" fill="#1E2533"/>
<path d="M134.403 32.5287V30.9962C134.403 29.3401 133.664 28.5244 132.777 28.5244C131.423 28.5244 130.98 29.2412 130.98 30.7243V40.6114C130.98 42.0945 131.423 42.8113 132.777 42.8113C134.132 42.8113 134.403 42.0945 134.403 40.8092V38.3374H137.8V40.6114C137.85 41.2791 137.758 41.9497 137.53 42.5788C137.301 43.2078 136.943 43.781 136.477 44.2602C136.011 44.7394 135.449 45.1137 134.828 45.3583C134.208 45.6028 133.542 45.712 132.876 45.6786C132.19 45.7446 131.498 45.6602 130.848 45.431C130.198 45.2018 129.605 44.8335 129.111 44.3514C128.616 43.8694 128.233 43.2852 127.986 42.6394C127.739 41.9936 127.635 41.3016 127.681 40.6114V30.7243C127.653 30.0441 127.771 29.366 128.026 28.7353C128.281 28.1046 128.667 27.536 129.16 27.0677C129.652 26.5995 130.238 26.2423 130.879 26.0203C131.52 25.7984 132.201 25.7166 132.876 25.7807C133.566 25.7772 134.25 25.9195 134.882 26.1982C135.514 26.477 136.08 26.886 136.544 27.3988C137.009 27.9116 137.361 28.5166 137.577 29.1747C137.793 29.8327 137.869 30.5291 137.8 31.2186V32.6523L134.403 32.5287Z" fill="#1E2533"/>
<path d="M140.41 45.7281V25.9537H149.471V28.8952H143.784V33.9871H148.166V37.0768H143.784V42.7619H149.841V45.7281H140.41Z" fill="#1E2533"/>
<path d="M155.085 45.7281H151.687V25.9537H156.44C160.231 25.9537 162.177 27.5604 162.177 31.7624C162.177 34.9511 160.945 36.2364 159.714 36.706L162.595 45.6786H159.32L156.858 37.4723C156.415 37.4723 155.701 37.4723 155.11 37.4723L155.085 45.7281ZM155.085 34.8027H156.267C158.114 34.8027 158.729 34.1354 158.729 31.7624C158.729 29.3895 158.065 28.7221 156.267 28.7221H155.085V34.8027Z" fill="#1E2533"/>
<path d="M164.516 30.7244C164.484 30.0454 164.599 29.3677 164.851 28.737C165.103 28.1063 165.488 27.5373 165.978 27.0686C166.468 26.5999 167.053 26.2423 167.693 26.0201C168.333 25.798 169.012 25.7163 169.686 25.7808C170.362 25.7167 171.042 25.7984 171.683 26.0204C172.324 26.2424 172.911 26.5996 173.403 27.0678C173.895 27.5361 174.281 28.1047 174.537 28.7354C174.792 29.366 174.909 30.0442 174.882 30.7244V40.9328C174.928 41.6231 174.824 42.315 174.577 42.9608C174.33 43.6066 173.946 44.1908 173.452 44.6729C172.957 45.1549 172.365 45.5233 171.715 45.7524C171.064 45.9816 170.372 46.0661 169.686 46C169.002 46.0666 168.31 45.9823 167.661 45.7529C167.012 45.5236 166.421 45.1548 165.929 44.6723C165.436 44.1897 165.055 43.6051 164.811 42.9592C164.567 42.3134 164.466 41.6218 164.516 40.9328V30.7244ZM167.889 40.834C167.889 42.3171 168.332 43.0339 169.686 43.0339C171.041 43.0339 171.484 42.3171 171.484 40.834V30.9468C171.484 29.4637 171.065 28.7469 169.686 28.7469C168.308 28.7469 167.889 29.4637 167.889 30.9468V40.834Z" fill="#1E2533"/>
<path d="M183.475 30.8232C183.475 29.1177 182.441 28.6233 181.678 28.6233C180.914 28.6233 179.979 29.3401 179.979 30.576C179.979 33.9377 186.873 35.5196 186.873 40.9328C186.894 41.6338 186.765 42.3312 186.497 42.9786C186.229 43.6261 185.826 44.2088 185.316 44.6881C184.806 45.1673 184.2 45.5322 183.539 45.7584C182.878 45.9845 182.176 46.0669 181.481 46C180.798 45.9652 180.129 45.7956 179.512 45.5008C178.895 45.206 178.342 44.7919 177.884 44.2821C177.427 43.7724 177.074 43.177 176.846 42.5302C176.618 41.8834 176.52 41.1977 176.556 40.5126L179.757 40.043C179.905 42.0451 180.693 43.0338 181.776 43.0338C182.028 43.0663 182.283 43.0434 182.525 42.9666C182.767 42.8899 182.99 42.7612 183.177 42.5895C183.365 42.4178 183.513 42.2073 183.611 41.9724C183.709 41.7375 183.755 41.484 183.746 41.2294C183.746 37.2993 176.876 36.2859 176.876 30.6007C176.827 29.9128 176.93 29.2224 177.179 28.5796C177.428 27.9367 177.817 27.3577 178.317 26.8843C178.816 26.411 179.415 26.0553 180.069 25.8431C180.722 25.6308 181.415 25.5673 182.096 25.6572C182.719 25.6604 183.335 25.7872 183.909 26.0302C184.483 26.2732 185.004 26.6278 185.441 27.0734C185.878 27.519 186.223 28.0469 186.456 28.6268C186.689 29.2067 186.806 29.8271 186.799 30.4524L183.475 30.8232Z" fill="#1E2533"/>
<path d="M193.792 45.7281V25.9537H198.716C202.902 25.9537 204.823 27.5604 204.823 31.7624C204.823 35.9645 202.902 37.6206 198.716 37.6206H197.239V45.7281H193.792ZM197.165 34.8027H198.47C200.686 34.8027 201.376 34.1354 201.376 31.7624C201.376 29.3895 200.686 28.7221 198.47 28.7221H197.165V34.8027Z" fill="#1E2533"/>
<path d="M208.565 45.7281H205.34L208.959 25.9537H213.17L216.814 45.7281H213.49L212.874 41.3283H209.181L208.565 45.7281ZM209.649 38.3127H212.382L211.028 29.8839L209.649 38.3127Z" fill="#1E2533"/>
<path d="M221.32 45.7281H217.946V25.9537H222.699C226.49 25.9537 228.411 27.5604 228.411 31.7624C228.411 34.9511 227.18 36.2364 225.949 36.706L228.805 45.6786H225.481L223.019 37.4723C222.436 37.502 221.853 37.502 221.271 37.4723L221.32 45.7281ZM221.32 34.8027H222.526C224.348 34.8027 224.988 34.1354 224.988 31.7624C224.988 29.3895 224.299 28.7221 222.526 28.7221H221.32V34.8027Z" fill="#1E2533"/>
<path d="M232.72 45.7281H229.445L233.065 25.9537H237.275L240.895 45.7281H237.62L237.029 41.3283H233.311L232.72 45.7281ZM233.803 38.3127H236.536L235.207 29.8097L233.803 38.3127Z" fill="#1E2533"/>
<path d="M242.052 45.7281V25.9537H245.179L249.291 37.2498V25.9537H252.393V45.7281H249.463L245.154 33.3691V45.7281H242.052Z" fill="#1E2533"/>
<path d="M256.825 45.728H253.551L257.17 25.9537H261.381L265 45.728H261.725L261.11 41.3282H257.416L256.825 45.728ZM259.608 24.9156H257.342L259.485 20.9607H263.178L259.608 24.9156ZM257.81 38.3868H260.519L259.189 29.8839L257.81 38.3868Z" fill="#1E2533"/>
</g>
<defs>
<clipPath id="clip0_440_3647">
<rect width="105" height="46" fill="white"/>
</clipPath>
<clipPath id="clip1_440_3647">
<rect width="150" height="46" fill="white" transform="translate(115)"/>
</clipPath>
</defs>
</svg>
