<svg width="481" height="336" viewBox="0 0 481 336" fill="none" xmlns="http://www.w3.org/2000/svg">
<path d="M273.333 185.667H198.667C195.838 185.667 193.125 184.543 191.124 182.542C189.124 180.542 188 177.829 188 175V111C188 108.171 189.124 105.458 191.124 103.458C193.125 101.457 195.838 100.333 198.667 100.333H273.333V25.6667C273.333 22.8377 274.457 20.1246 276.458 18.1242C278.458 16.1238 281.171 15 284 15H348C350.829 15 353.542 16.1238 355.542 18.1242C357.543 20.1246 358.667 22.8377 358.667 25.6667V100.333H433.333C436.162 100.333 438.875 101.457 440.876 103.458C442.876 105.458 444 108.171 444 111V175C444 177.829 442.876 180.542 440.876 182.542C438.875 184.543 436.162 185.667 433.333 185.667H358.667V260.333C358.667 263.162 357.543 265.875 355.542 267.876C353.542 269.876 350.829 271 348 271H284C281.171 271 278.458 269.876 276.458 267.876C274.457 265.875 273.333 263.162 273.333 260.333V185.667Z" fill="#FF3300" fill-opacity="0.4" stroke="#E62E00" stroke-width="3" stroke-linecap="round" stroke-linejoin="round"/>
<path d="M116.605 41.1488L82.2273 46.9912C81.378 47.1366 80.5052 46.9607 79.7778 46.4975C79.0503 46.0343 78.52 45.3168 78.2893 44.4838C75.8056 35.4875 70.6128 23.7516 75.6545 17.8603C75.9113 15.3818 77.1108 13.0982 79.0031 11.4849C80.8955 9.87162 83.3349 9.05292 85.8137 9.19924C91.9549 -0.448142 102.184 1.00035 109.098 7.02557C116.056 9.43497 118.679 13.7154 117.762 19.5242C120.767 22.1647 122.343 25.1388 122.676 28.4032C122.833 30.2198 122.603 32.0492 122 33.7694C121.397 35.4896 120.436 37.0609 119.18 38.3786L116.605 41.1488Z" fill="#2F2E41"/>
<path d="M111.26 68.3096L84.6094 66.7364C87.2212 60.7205 88.2644 54.9274 87.2221 49.4307H107.079C107.034 53.6511 109.127 60.9516 111.26 68.3096Z" fill="#9F616A"/>
<path d="M79.1809 315.443L78.0879 330.439C78.0384 331.118 78.1341 331.8 78.3686 332.438C78.6031 333.077 78.971 333.658 79.4475 334.142C79.9241 334.626 80.4983 335.003 81.1317 335.246C81.7651 335.489 82.443 335.594 83.12 335.553L90.7955 335.086C91.1512 335.065 91.4977 334.965 91.8105 334.793C92.1232 334.622 92.3946 334.384 92.6052 334.095C92.8159 333.807 92.9607 333.476 93.0293 333.125C93.098 332.774 93.0887 332.412 93.0023 332.065L88.7418 314.963L79.1809 315.443Z" fill="#E6E6E6"/>
<path d="M104.029 314.963L99.7687 332.065C99.6823 332.412 99.6731 332.774 99.7417 333.125C99.8104 333.476 99.9552 333.807 100.166 334.095C100.376 334.384 100.648 334.622 100.961 334.793C101.273 334.965 101.62 335.065 101.976 335.086L109.651 335.553C110.328 335.594 111.006 335.489 111.639 335.246C112.273 335.003 112.847 334.626 113.324 334.142C113.8 333.658 114.168 333.077 114.402 332.438C114.637 331.8 114.733 331.118 114.683 330.439L113.59 315.443L104.029 314.963Z" fill="#E6E6E6"/>
<path d="M114.086 317.525L103.728 316.482L93.4159 205.86L89.5186 316.125L79.3423 315.759L62.1904 163.048H127.72L114.086 317.525Z" fill="#CC2900"/>
<path d="M97.6755 55.7968C108.606 55.7968 117.466 46.9046 117.466 35.9356C117.466 24.9665 108.606 16.0743 97.6755 16.0743C86.7454 16.0743 77.8848 24.9665 77.8848 35.9356C77.8848 46.9046 86.7454 55.7968 97.6755 55.7968Z" fill="#9F616A"/>
<path d="M119.98 26.4476C111.947 25.0437 104.05 24.851 96.3732 26.6317C91.483 28.2383 85.6102 28.0902 79.0791 26.7665V13.3729L114.338 14.0107L119.98 26.4476Z" fill="#2F2E41"/>
<path d="M110.846 51.8717C102.188 55.4858 93.1103 55.3391 83.6609 51.8717C86.4105 47.1617 82.3004 43.4729 80.1904 38.7183L115.474 37.666C112.775 41.7964 108.794 46.6764 110.846 51.8717Z" fill="white"/>
<path d="M77.761 36.0059L77.4141 36.4237L80.8844 39.3259L81.2313 38.9081L77.761 36.0059Z" fill="white"/>
<path d="M116.113 41.874L110.038 51.451L110.495 51.743L116.57 42.1659L116.113 41.874Z" fill="white"/>
<path d="M78.3936 41.8735L77.9365 42.1654L84.0099 51.7434L84.4669 51.4515L78.3936 41.8735Z" fill="white"/>
<path d="M60.0496 126.52L44.8955 117.08L57.8192 79.0943C59.2607 75.1746 62.0215 71.8836 65.6245 69.7902L69.9781 67.2608L70.3566 105.581L60.0496 126.52Z" fill="#CC2900"/>
<path d="M125.553 144.968L123.311 125.697C123.191 115.524 124.915 105.69 129.027 96.628L131.117 68.3096L108.125 58.8701C108.055 59.3404 107.995 59.8103 107.927 60.2804L97.1515 65.6876L86.6422 63.2906L86.7004 59.919L65.7983 69.3585C72.7106 101.609 68.9405 135.1 57.0537 174.658L84.5904 182.214L84.8193 168.945L109.36 167.186C109.613 171.491 109.816 175.719 109.934 179.854C123.782 184.971 124.258 184.886 136.875 177.56C131.85 166.959 127.872 155.926 125.553 144.968Z" fill="#CC2900"/>
<path d="M160.902 121.8L146.794 117.08L124.226 90.7142L131.117 68.3099L162.47 112.361L160.902 121.8Z" fill="#CC2900"/>
<path d="M116.686 142.212C116.916 143.229 117.54 144.112 118.418 144.668C119.297 145.225 120.36 145.408 121.374 145.179L133.35 142.458L131.619 134.786L119.643 137.507C118.629 137.738 117.748 138.363 117.193 139.245C116.639 140.127 116.456 141.195 116.686 142.212V142.212Z" fill="#E6E6E6"/>
<path d="M127.459 133.337L134.252 145.923C145.678 142.725 155.581 132.643 165.083 120.751L162.47 112.361L146.271 116.556L127.459 133.337Z" fill="#CC2900"/>
<path d="M38.8867 93.8578L51.9279 96.1947L81.7364 138.73L65.9007 134.99L38.8867 93.8578Z" fill="#E6E6E6"/>
<path d="M36.573 93.3371C36.3743 93.3401 36.18 93.3967 36.0105 93.5008C35.841 93.605 35.7025 93.7529 35.6095 93.9292C35.5164 94.1054 35.4723 94.3035 35.4817 94.5028C35.4911 94.702 35.5537 94.8951 35.6629 95.0617L63.5258 137.487C63.6813 137.725 63.9215 137.893 64.1969 137.958L77.1607 141.019C77.3793 141.07 77.6083 141.054 77.8175 140.972C78.0266 140.89 78.206 140.746 78.3318 140.559C78.4575 140.373 78.5238 140.152 78.5217 139.927C78.5196 139.701 78.4493 139.482 78.3201 139.298L47.7283 95.645C47.6453 95.5261 47.5398 95.4247 47.4178 95.3467C47.2958 95.2687 47.1596 95.2157 47.0172 95.1905L36.782 93.3561C36.713 93.3437 36.6431 93.3373 36.573 93.3371Z" fill="#3F3D56"/>
<path d="M53.9541 123.671L54.7285 131.499L66.9483 130.282C67.9826 130.178 68.9338 129.667 69.5927 128.86C70.2515 128.054 70.5639 127.017 70.4613 125.979C70.3586 124.941 69.8493 123.987 69.0453 123.325C68.2413 122.664 67.2085 122.351 66.1742 122.454L53.9541 123.671Z" fill="#E6E6E6"/>
<path d="M43.3281 122.764C43.3459 125.433 44.4141 127.987 46.2999 129.87C48.1858 131.752 50.7365 132.81 53.3962 132.813H55.4055L56.8683 120.579L44.7565 116.203L43.3281 122.764Z" fill="#CC2900"/>
<path d="M114.508 39.0193L114.125 38.635L114.703 38.0544L118.16 34.0063L118.571 34.3596L115.101 38.423L114.508 39.0193Z" fill="white"/>
<path d="M481 334.913H0V336H481V334.913Z" fill="#3F3D56"/>
<path d="M265.537 335H340.702V243.829C340.702 239.002 335.947 235.074 330.103 235.074H276.137C270.292 235.074 265.537 239.002 265.537 243.829V335Z" fill="#E6E6E6"/>
<path d="M271.728 331.463H334.513V254.008C334.513 249.907 330.541 246.57 325.659 246.57H280.582C275.699 246.57 271.728 249.907 271.728 254.008V331.463Z" fill="white"/>
<path d="M265.337 228C263.497 228 262 229.218 262 230.714V238.55C262 240.047 263.497 241.264 265.337 241.264H340.903C342.743 241.264 344.24 240.047 344.24 238.55V230.714C344.24 229.218 342.743 228 340.903 228H265.337Z" fill="#3F3D56"/>
<path d="M280.42 321.736C279.523 321.738 278.663 322.065 278.028 322.645C277.394 323.225 277.036 324.01 277.033 324.831V324.831C277.036 325.651 277.394 326.437 278.028 327.016C278.663 327.596 279.523 327.923 280.42 327.926H286.76V321.736H280.42Z" fill="#3F3D56"/>
<path d="M292.468 321.736H286.761V327.926H292.468C293.299 327.923 294.095 327.596 294.683 327.016C295.27 326.437 295.601 325.651 295.604 324.831V324.831C295.601 324.01 295.27 323.225 294.683 322.645C294.095 322.065 293.299 321.738 292.468 321.736V321.736Z" fill="#CC2900"/>
<path opacity="0.2" d="M294.514 321.736C295.009 322.373 295.281 323.191 295.282 324.037V324.037C295.28 324.972 294.949 325.867 294.361 326.528C293.774 327.189 292.978 327.561 292.147 327.564H286.761V327.926H292.468C293.299 327.923 294.095 327.55 294.683 326.89C295.27 326.229 295.601 325.333 295.604 324.399C295.603 323.893 295.505 323.393 295.317 322.933C295.129 322.474 294.855 322.065 294.514 321.736V321.736Z" fill="black"/>
<path d="M308.256 271.536C307.667 270.866 306.856 270.475 306 270.448C305.144 270.421 304.313 270.76 303.689 271.391V271.391C303.067 272.026 302.704 272.9 302.679 273.822C302.654 274.745 302.968 275.641 303.554 276.314L307.702 281.058L312.405 276.28L308.256 271.536Z" fill="#3F3D56"/>
<path d="M316.824 280.034L312.742 275.752L307.983 280.186L312.066 284.468C312.662 285.09 313.483 285.453 314.349 285.478C315.215 285.503 316.056 285.189 316.688 284.603V284.603C317.316 284.014 317.684 283.202 317.709 282.346C317.735 281.49 317.417 280.659 316.824 280.034V280.034Z" fill="#CC2900"/>
<path opacity="0.2" d="M317.707 282.243C317.631 282.984 317.274 283.675 316.704 284.187V284.187C316.072 284.75 315.23 285.052 314.364 285.028C313.498 285.003 312.677 284.654 312.081 284.057L308.227 280.174L307.983 280.392L312.067 284.507C312.663 285.105 313.484 285.454 314.35 285.478C315.216 285.502 316.057 285.2 316.69 284.637C317.031 284.331 317.298 283.958 317.473 283.545C317.649 283.132 317.729 282.688 317.707 282.243V282.243Z" fill="black"/>
<path d="M290.571 282.057C289.982 281.443 289.171 281.084 288.315 281.059C287.459 281.034 286.628 281.345 286.003 281.923V281.923C285.382 282.506 285.019 283.307 284.994 284.153C284.968 284.998 285.283 285.819 285.868 286.437L290.017 290.785L294.719 286.405L290.571 282.057Z" fill="#3F3D56"/>
<path d="M299.139 290.645L295.056 286.364L290.298 290.798L294.381 295.08C294.977 295.701 295.797 296.064 296.663 296.089C297.529 296.115 298.37 295.8 299.002 295.215V295.215C299.631 294.625 299.998 293.814 300.024 292.958C300.049 292.102 299.731 291.27 299.139 290.645V290.645Z" fill="#CC2900"/>
<path opacity="0.2" d="M300.022 292.854C299.945 293.596 299.589 294.286 299.018 294.798V294.798C298.386 295.361 297.545 295.663 296.679 295.639C295.813 295.615 294.992 295.266 294.396 294.669L290.542 290.785L290.298 291.004L294.381 295.119C294.978 295.716 295.799 296.065 296.665 296.09C297.531 296.114 298.372 295.812 299.004 295.249V295.249C299.345 294.942 299.612 294.57 299.788 294.157C299.963 293.744 300.043 293.299 300.022 292.854Z" fill="black"/>
<path d="M308.256 291.784C307.667 291.17 306.856 290.811 306 290.787C305.144 290.762 304.313 291.072 303.689 291.651V291.651C303.067 292.233 302.704 293.034 302.679 293.88C302.654 294.725 302.968 295.547 303.554 296.164L307.702 300.512L312.405 296.133L308.256 291.784Z" fill="#3F3D56"/>
<path d="M316.824 300.373L312.742 296.091L307.983 300.525L312.066 304.807C312.662 305.428 313.483 305.791 314.349 305.817C315.215 305.842 316.056 305.528 316.688 304.942V304.942C317.316 304.353 317.684 303.541 317.709 302.685C317.735 301.829 317.417 300.998 316.824 300.373V300.373Z" fill="#CC2900"/>
<path opacity="0.2" d="M317.707 302.581C317.631 303.323 317.274 304.014 316.704 304.526C316.072 305.088 315.23 305.391 314.364 305.366C313.498 305.342 312.677 304.993 312.081 304.396L308.227 300.512L307.983 300.731L312.067 304.846C312.663 305.444 313.484 305.793 314.35 305.817C315.216 305.841 316.057 305.539 316.69 304.976V304.976C317.031 304.67 317.298 304.297 317.473 303.884C317.649 303.471 317.729 303.027 317.707 302.581V302.581Z" fill="black"/>
<path d="M319.302 312.239C319.966 311.644 320.347 310.831 320.363 309.977C320.379 309.123 320.028 308.298 319.388 307.682V307.682C318.743 307.07 317.862 306.718 316.937 306.703C316.013 306.688 315.119 307.012 314.452 307.603L309.752 311.794L314.602 316.43L319.302 312.239Z" fill="#3F3D56"/>
<path d="M310.817 320.824L315.058 316.7L310.558 312.008L306.316 316.133C305.7 316.735 305.346 317.558 305.332 318.422C305.317 319.286 305.642 320.121 306.236 320.744V320.744C306.835 321.364 307.652 321.72 308.51 321.735C309.368 321.75 310.198 321.423 310.817 320.824V320.824Z" fill="#CC2900"/>
<path opacity="0.2" d="M308.65 321.73C307.898 321.663 307.193 321.316 306.668 320.754V320.754C306.09 320.131 305.774 319.296 305.788 318.431C305.803 317.567 306.147 316.744 306.745 316.142L310.637 312.249L310.412 312.008L306.289 316.134C305.69 316.736 305.346 317.559 305.332 318.423C305.317 319.287 305.633 320.122 306.211 320.746V320.746C306.526 321.082 306.906 321.344 307.327 321.514C307.748 321.683 308.199 321.757 308.65 321.73Z" fill="black"/>
<path d="M295.515 301.628C296.123 301.033 296.473 300.219 296.488 299.366C296.502 298.512 296.181 297.687 295.594 297.071C295.003 296.458 294.195 296.106 293.347 296.091C292.5 296.077 291.681 296.4 291.069 296.992L286.761 301.182L291.207 305.818L295.515 301.628Z" fill="#3F3D56"/>
<path d="M286.94 310.212L291.181 306.088L286.681 301.397L282.439 305.521C281.823 306.123 281.469 306.946 281.455 307.81C281.44 308.674 281.765 309.509 282.36 310.132V310.132C282.958 310.752 283.775 311.108 284.633 311.123C285.491 311.138 286.321 310.811 286.94 310.212V310.212Z" fill="#CC2900"/>
<path opacity="0.2" d="M284.773 311.118C284.021 311.052 283.317 310.705 282.791 310.143C282.213 309.519 281.897 308.684 281.911 307.82C281.926 306.956 282.27 306.133 282.868 305.53L286.76 301.637L286.535 301.397L282.412 305.522C281.813 306.124 281.469 306.947 281.455 307.812C281.44 308.676 281.756 309.511 282.334 310.134V310.134C282.649 310.47 283.029 310.732 283.45 310.902C283.871 311.072 284.323 311.146 284.773 311.118V311.118Z" fill="black"/>
<path d="M329.118 289.247C329.726 288.652 330.075 287.839 330.09 286.985C330.105 286.132 329.783 285.307 329.196 284.691V284.691C328.605 284.078 327.798 283.726 326.95 283.711C326.102 283.696 325.283 284.02 324.671 284.611L320.363 288.802L324.809 293.438L329.118 289.247Z" fill="#3F3D56"/>
<path d="M320.543 297.832L324.785 293.708L320.284 289.017L316.043 293.141C315.427 293.743 315.073 294.566 315.058 295.43C315.043 296.294 315.369 297.129 315.963 297.752V297.752C316.561 298.372 317.379 298.728 318.237 298.743C319.095 298.758 319.924 298.431 320.543 297.832Z" fill="#CC2900"/>
<path opacity="0.2" d="M318.377 298.738C317.624 298.671 316.92 298.325 316.395 297.762V297.762C315.817 297.139 315.5 296.304 315.515 295.44C315.529 294.576 315.873 293.752 316.472 293.15L320.363 289.257L320.139 289.017L316.015 293.142C315.417 293.744 315.073 294.567 315.058 295.432C315.044 296.296 315.36 297.131 315.938 297.754V297.754C316.252 298.09 316.633 298.352 317.054 298.522C317.475 298.692 317.926 298.765 318.377 298.738Z" fill="black"/>
<path d="M321.521 315.66C320.932 315.046 320.121 314.688 319.265 314.663C318.409 314.638 317.578 314.948 316.953 315.527V315.527C316.332 316.109 315.969 316.91 315.944 317.756C315.919 318.601 316.233 319.423 316.818 320.04L320.967 324.388L325.67 320.009L321.521 315.66Z" fill="#3F3D56"/>
<path d="M330.089 324.249L326.006 319.967L321.248 324.401L325.331 328.683C325.927 329.304 326.747 329.668 327.613 329.693C328.479 329.718 329.32 329.404 329.952 328.818V328.818C330.581 328.229 330.948 327.417 330.974 326.561C330.999 325.705 330.681 324.874 330.089 324.249Z" fill="#CC2900"/>
<path opacity="0.2" d="M330.972 325.918C330.895 326.783 330.539 327.589 329.968 328.186V328.186C329.336 328.843 328.495 329.196 327.629 329.167C326.763 329.139 325.942 328.732 325.346 328.035L321.492 323.504L321.248 323.759L325.332 328.56C325.928 329.257 326.749 329.664 327.615 329.693C328.481 329.721 329.322 329.368 329.954 328.712V328.712C330.295 328.354 330.563 327.92 330.738 327.438C330.914 326.956 330.993 326.437 330.972 325.918V325.918Z" fill="black"/>
<path d="M298.529 314.867C297.94 314.197 297.129 313.806 296.273 313.778C295.417 313.751 294.586 314.09 293.961 314.721V314.721C293.34 315.356 292.977 316.23 292.952 317.153C292.926 318.075 293.241 318.971 293.826 319.645L297.975 324.388L302.677 319.61L298.529 314.867Z" fill="#3F3D56"/>
<path d="M306.213 323.364L302.13 319.083L297.372 323.517L301.455 327.799C302.051 328.42 302.872 328.783 303.737 328.809C304.603 328.834 305.444 328.519 306.076 327.934V327.934C306.705 327.344 307.072 326.533 307.098 325.677C307.123 324.821 306.805 323.989 306.213 323.364V323.364Z" fill="#CC2900"/>
<path opacity="0.2" d="M307.096 325.573C307.019 326.315 306.663 327.005 306.092 327.517V327.517C305.46 328.08 304.619 328.382 303.753 328.358C302.887 328.334 302.066 327.985 301.47 327.388L297.616 323.504L297.372 323.723L301.456 327.838C302.052 328.435 302.873 328.784 303.739 328.809C304.605 328.833 305.446 328.531 306.078 327.968V327.968C306.419 327.661 306.687 327.289 306.862 326.876C307.038 326.463 307.117 326.018 307.096 325.573Z" fill="black"/>
<path d="M305.331 303.165C305.331 304.185 304.944 305.173 304.235 305.962C303.526 306.752 302.538 307.294 301.44 307.498C300.798 307.616 300.136 307.616 299.494 307.498C298.396 307.294 297.409 306.752 296.7 305.962C295.991 305.172 295.604 304.185 295.604 303.165C295.604 302.146 295.991 301.158 296.7 300.369C297.409 299.579 298.396 299.036 299.494 298.832C300.136 298.714 300.798 298.714 301.44 298.832C302.538 299.036 303.526 299.579 304.235 300.368C304.944 301.158 305.331 302.146 305.331 303.165V303.165Z" fill="#CC2900"/>
<path opacity="0.2" d="M300.909 298.832V307.498C300.326 307.616 299.724 307.616 299.141 307.498V298.832C299.724 298.714 300.326 298.714 300.909 298.832Z" fill="black"/>
<path d="M307.099 284.153C307.1 285.274 306.712 286.361 306.003 287.23C305.294 288.098 304.307 288.695 303.208 288.919C302.566 289.049 301.905 289.049 301.263 288.919C300.165 288.695 299.177 288.098 298.468 287.229C297.759 286.361 297.372 285.274 297.372 284.153C297.372 283.032 297.759 281.945 298.468 281.076C299.177 280.208 300.165 279.611 301.263 279.387C301.905 279.257 302.566 279.257 303.208 279.387C304.307 279.611 305.294 280.208 306.003 281.076C306.712 281.945 307.1 283.032 307.099 284.153V284.153Z" fill="#CC2900"/>
<path opacity="0.2" d="M303.562 279.387V288.919C302.978 289.049 302.377 289.049 301.793 288.919V279.387C302.377 279.257 302.978 279.257 303.562 279.387Z" fill="black"/>
<path d="M307.099 311.566C307.1 312.687 306.712 313.774 306.003 314.643C305.294 315.511 304.307 316.108 303.208 316.332C302.566 316.462 301.905 316.462 301.263 316.332C300.165 316.108 299.177 315.511 298.468 314.643C297.759 313.774 297.372 312.687 297.372 311.566C297.372 310.445 297.759 309.358 298.468 308.49C299.177 307.621 300.165 307.024 301.263 306.8C301.905 306.67 302.566 306.67 303.208 306.8C304.307 307.024 305.294 307.621 306.003 308.489C306.712 309.358 307.1 310.445 307.099 311.566V311.566Z" fill="#CC2900"/>
<path opacity="0.2" d="M303.562 306.8V316.332C302.978 316.462 302.377 316.462 301.793 316.332V306.8C302.377 306.67 302.978 306.67 303.562 306.8Z" fill="black"/>
<path d="M318.595 324.831C318.595 325.952 318.243 327.039 317.599 327.907C316.954 328.776 316.056 329.373 315.058 329.597C314.474 329.727 313.873 329.727 313.289 329.597C312.291 329.372 311.393 328.775 310.749 327.907C310.104 327.038 309.752 325.952 309.752 324.831C309.752 323.709 310.104 322.623 310.749 321.754C311.393 320.886 312.291 320.289 313.289 320.064C313.873 319.935 314.474 319.935 315.058 320.064C316.056 320.288 316.954 320.885 317.599 321.754C318.243 322.623 318.595 323.709 318.595 324.831V324.831Z" fill="#CC2900"/>
<path opacity="0.2" d="M315.058 320.064V329.597C314.474 329.727 313.873 329.727 313.289 329.597V320.064C313.873 319.935 314.474 319.935 315.058 320.064Z" fill="black"/>
<path d="M329.486 300.106C330.294 300.884 330.808 301.917 330.941 303.03C331.074 304.143 330.819 305.268 330.218 306.215C329.866 306.767 329.407 307.243 328.868 307.615C327.944 308.25 326.829 308.547 325.712 308.455C324.595 308.362 323.544 307.887 322.737 307.109C321.93 306.331 321.416 305.298 321.283 304.185C321.149 303.072 321.405 301.947 322.005 301.001C322.357 300.448 322.816 299.972 323.355 299.6C324.279 298.965 325.394 298.668 326.511 298.76C327.628 298.853 328.679 299.328 329.486 300.106V300.106Z" fill="#CC2900"/>
<path opacity="0.2" d="M323.44 299.628L330.091 306.196C329.749 306.744 329.305 307.217 328.782 307.587L322.132 301.019C322.473 300.47 322.918 299.998 323.44 299.628V299.628Z" fill="black"/>
<path d="M330.506 310.718C331.24 311.496 331.707 312.528 331.828 313.642C331.949 314.755 331.717 315.88 331.171 316.826C330.851 317.378 330.434 317.855 329.944 318.227C329.104 318.862 328.09 319.158 327.075 319.066C326.059 318.974 325.104 318.499 324.37 317.721C323.636 316.943 323.169 315.91 323.048 314.797C322.927 313.684 323.159 312.559 323.705 311.612C324.025 311.06 324.442 310.584 324.932 310.212C325.772 309.576 326.785 309.28 327.801 309.372C328.817 309.464 329.772 309.94 330.506 310.718V310.718Z" fill="#CC2900"/>
<path opacity="0.2" d="M324.47 310.24L331.86 316.808C331.48 317.356 330.986 317.829 330.406 318.198L323.017 311.63C323.396 311.082 323.89 310.609 324.47 310.24V310.24Z" fill="black"/>
<path d="M288.06 313.371C288.794 314.148 289.261 315.181 289.382 316.295C289.503 317.408 289.271 318.533 288.725 319.479C288.405 320.031 287.987 320.508 287.497 320.88C286.658 321.515 285.644 321.811 284.629 321.719C283.613 321.627 282.657 321.151 281.924 320.374C281.19 319.596 280.723 318.563 280.602 317.45C280.481 316.336 280.713 315.212 281.259 314.265C281.579 313.713 281.996 313.237 282.486 312.864C283.326 312.229 284.339 311.933 285.355 312.025C286.371 312.117 287.326 312.592 288.06 313.371V313.371Z" fill="#CC2900"/>
<path opacity="0.2" d="M281.879 312.893L288.529 319.461C288.188 320.009 287.743 320.482 287.221 320.851L280.57 314.283C280.912 313.735 281.356 313.262 281.879 312.893V312.893Z" fill="black"/>
<path opacity="0.2" d="M272.611 228H270.843V241.264H272.611V228Z" fill="black"/>
<path opacity="0.2" d="M283.223 228H281.454V241.264H283.223V228Z" fill="black"/>
<path opacity="0.2" d="M293.835 228H292.066V241.264H293.835V228Z" fill="black"/>
<path opacity="0.2" d="M304.446 228H301.793V241.264H304.446V228Z" fill="black"/>
<path opacity="0.2" d="M314.174 228H312.405V241.264H314.174V228Z" fill="black"/>
<path opacity="0.2" d="M324.785 228H323.017V241.264H324.785V228Z" fill="black"/>
<path opacity="0.2" d="M335.397 228H333.628V241.264H335.397V228Z" fill="black"/>
<path d="M180.046 306.105L223.522 331.952L254.872 279.219C256.532 276.426 255.132 272.52 251.752 270.51L220.538 251.953C217.158 249.943 213.057 250.58 211.397 253.372L180.046 306.105Z" fill="#E6E6E6"/>
<path d="M184.843 306.188L221.158 327.778L247.792 282.978C249.203 280.606 248.053 277.31 245.229 275.631L219.156 260.131C216.332 258.452 212.888 259.016 211.477 261.388L184.843 306.188Z" fill="white"/>
<path d="M216.724 244.147C215.66 243.515 214.375 243.704 213.861 244.57L211.166 249.102C210.651 249.968 211.099 251.187 212.163 251.82L255.87 277.804C256.934 278.437 258.219 278.247 258.734 277.382L261.428 272.85C261.943 271.984 261.496 270.765 260.431 270.132L216.724 244.147Z" fill="#3F3D56"/>
<path d="M193.215 303.55C192.695 303.243 192.085 303.137 191.519 303.254C190.952 303.371 190.475 303.702 190.192 304.176V304.176C189.911 304.651 189.848 305.229 190.015 305.782C190.183 306.336 190.568 306.821 191.086 307.131L194.754 309.311L196.882 305.731L193.215 303.55Z" fill="#3F3D56"/>
<path d="M200.184 307.694L196.883 305.731L194.754 309.311L198.056 311.274C198.537 311.558 199.11 311.643 199.649 311.509C200.188 311.376 200.65 311.035 200.933 310.562V310.562C201.214 310.087 201.293 309.518 201.152 308.981C201.012 308.443 200.664 307.981 200.184 307.694V307.694Z" fill="#CC2900"/>
<path opacity="0.2" d="M201.367 308.397C201.434 308.936 201.311 309.503 201.02 309.992V309.992C200.697 310.532 200.198 310.936 199.631 311.116C199.064 311.296 198.475 311.238 197.994 310.954L194.879 309.102L194.754 309.311L198.056 311.274C198.537 311.558 199.126 311.616 199.693 311.436C200.26 311.256 200.759 310.852 201.082 310.312C201.255 310.019 201.371 309.696 201.42 309.366C201.469 309.036 201.451 308.705 201.367 308.397V308.397Z" fill="black"/>
<path d="M226.579 284.087C226.468 283.497 226.133 282.992 225.648 282.682C225.162 282.372 224.565 282.282 223.987 282.433V282.433C223.409 282.586 222.898 282.967 222.566 283.492C222.235 284.017 222.108 284.643 222.216 285.234L222.984 289.404L227.347 288.258L226.579 284.087Z" fill="#3F3D56"/>
<path d="M228.612 291.949L227.723 288.068L223.446 288.997L224.335 292.877C224.466 293.442 224.816 293.934 225.308 294.246C225.8 294.559 226.395 294.666 226.962 294.545V294.545C227.528 294.42 228.019 294.077 228.329 293.591C228.638 293.104 228.74 292.514 228.612 291.949V291.949Z" fill="#CC2900"/>
<path opacity="0.2" d="M228.363 293.53C228.064 293.933 227.62 294.209 227.114 294.309V294.309C226.555 294.417 225.964 294.303 225.472 293.991C224.979 293.679 224.624 293.195 224.485 292.645L223.591 289.073L223.375 289.116L224.322 292.9C224.461 293.451 224.816 293.935 225.309 294.247C225.801 294.559 226.392 294.673 226.951 294.565C227.254 294.505 227.536 294.382 227.78 294.203C228.023 294.024 228.222 293.795 228.363 293.53V293.53Z" fill="black"/>
<path d="M212.731 284.091C212.601 283.533 212.255 283.047 211.769 282.738C211.283 282.429 210.695 282.323 210.135 282.443V282.443C209.575 282.566 209.09 282.905 208.784 283.385C208.479 283.865 208.378 284.449 208.505 285.007L209.409 288.949L213.635 288.032L212.731 284.091Z" fill="#3F3D56"/>
<path d="M214.733 292.005L213.844 288.124L209.567 289.053L210.456 292.933C210.587 293.498 210.937 293.99 211.429 294.302C211.921 294.615 212.516 294.722 213.083 294.6V294.6C213.649 294.476 214.141 294.133 214.45 293.646C214.759 293.16 214.861 292.57 214.733 292.005V292.005Z" fill="#CC2900"/>
<path opacity="0.2" d="M214.484 293.586C214.185 293.988 213.741 294.265 213.235 294.365V294.365C212.676 294.473 212.085 294.359 211.593 294.047C211.1 293.735 210.745 293.251 210.606 292.701L209.712 289.129L209.496 289.172L210.443 292.956C210.582 293.507 210.937 293.991 211.43 294.303C211.923 294.615 212.513 294.729 213.072 294.621V294.621C213.375 294.561 213.657 294.437 213.901 294.259C214.145 294.08 214.343 293.851 214.484 293.586Z" fill="black"/>
<path d="M219.616 295.799C219.486 295.241 219.14 294.755 218.654 294.446C218.167 294.137 217.58 294.031 217.019 294.151V294.151C216.46 294.274 215.974 294.613 215.669 295.093C215.364 295.574 215.263 296.157 215.39 296.715L216.294 300.657L220.52 299.74L219.616 295.799Z" fill="#3F3D56"/>
<path d="M221.618 303.713L220.729 299.832L216.452 300.761L217.341 304.641C217.472 305.206 217.822 305.698 218.314 306.01C218.806 306.323 219.401 306.43 219.968 306.309V306.309C220.534 306.184 221.025 305.841 221.334 305.355C221.644 304.868 221.745 304.278 221.618 303.713V303.713Z" fill="#CC2900"/>
<path opacity="0.2" d="M221.369 305.294C221.069 305.697 220.626 305.973 220.12 306.073C219.561 306.181 218.97 306.067 218.478 305.755C217.985 305.443 217.63 304.959 217.491 304.409L216.597 300.837L216.381 300.88L217.328 304.664C217.467 305.215 217.822 305.699 218.315 306.011C218.807 306.323 219.398 306.437 219.957 306.329V306.329C220.259 306.269 220.542 306.146 220.786 305.967C221.029 305.788 221.228 305.559 221.369 305.294V305.294Z" fill="black"/>
<path d="M218.971 311.428C219.559 311.312 220.059 310.973 220.362 310.484C220.665 309.996 220.746 309.398 220.587 308.822V308.822C220.425 308.246 220.036 307.739 219.507 307.413C218.977 307.086 218.349 306.966 217.759 307.079L213.6 307.886L214.811 312.236L218.971 311.428Z" fill="#3F3D56"/>
<path d="M211.11 313.476L214.982 312.549L213.992 308.288L210.12 309.215C209.557 309.351 209.069 309.706 208.764 310.2C208.458 310.695 208.359 311.29 208.489 311.854V311.854C208.621 312.419 208.972 312.906 209.463 313.21C209.954 313.513 210.546 313.609 211.11 313.476V313.476Z" fill="#CC2900"/>
<path opacity="0.2" d="M209.546 313.255C209.133 312.957 208.845 312.515 208.735 312.009V312.009C208.615 311.449 208.719 310.858 209.024 310.363C209.33 309.868 209.812 309.51 210.365 309.368L213.955 308.454L213.908 308.238L210.104 309.206C209.551 309.348 209.069 309.706 208.763 310.201C208.458 310.696 208.353 311.288 208.473 311.847V311.847C208.54 312.149 208.67 312.432 208.855 312.675C209.04 312.918 209.276 313.116 209.546 313.255Z" fill="black"/>
<path d="M208.861 297.111C209.417 296.976 209.899 296.626 210.201 296.137C210.503 295.648 210.601 295.06 210.473 294.502C210.342 293.945 209.996 293.463 209.511 293.163C209.026 292.863 208.44 292.769 207.883 292.9L203.95 293.843L204.928 298.053L208.861 297.111Z" fill="#3F3D56"/>
<path d="M200.949 299.128L204.821 298.201L203.831 293.94L199.959 294.867C199.396 295.003 198.908 295.358 198.602 295.852C198.297 296.347 198.198 296.941 198.327 297.506V297.506C198.46 298.071 198.81 298.558 199.302 298.862C199.793 299.165 200.385 299.261 200.949 299.128V299.128Z" fill="#CC2900"/>
<path opacity="0.2" d="M199.385 298.907C198.972 298.609 198.684 298.167 198.574 297.661C198.454 297.101 198.558 296.51 198.863 296.015C199.169 295.52 199.651 295.162 200.204 295.02L203.794 294.106L203.747 293.89L199.943 294.858C199.39 295 198.908 295.358 198.602 295.853C198.296 296.348 198.192 296.94 198.312 297.499V297.499C198.378 297.801 198.509 298.084 198.694 298.327C198.879 298.57 199.114 298.768 199.385 298.907V298.907Z" fill="black"/>
<path d="M232.554 301.505C233.111 301.37 233.592 301.02 233.894 300.531C234.197 300.042 234.294 299.455 234.167 298.896V298.896C234.035 298.339 233.689 297.858 233.204 297.557C232.719 297.257 232.134 297.163 231.577 297.295L227.644 298.237L228.621 302.447L232.554 301.505Z" fill="#3F3D56"/>
<path d="M224.642 303.522L228.514 302.595L227.524 298.334L223.652 299.261C223.089 299.397 222.602 299.752 222.296 300.246C221.99 300.741 221.891 301.336 222.021 301.901V301.901C222.154 302.465 222.504 302.952 222.995 303.256C223.486 303.56 224.079 303.655 224.642 303.522Z" fill="#CC2900"/>
<path opacity="0.2" d="M223.078 303.301C222.665 303.004 222.377 302.561 222.267 302.055V302.055C222.147 301.496 222.251 300.904 222.557 300.409C222.862 299.914 223.344 299.556 223.898 299.414L227.487 298.5L227.44 298.284L223.636 299.252C223.083 299.395 222.601 299.752 222.295 300.247C221.99 300.742 221.886 301.334 222.006 301.893V301.893C222.072 302.196 222.202 302.478 222.387 302.721C222.572 302.964 222.808 303.162 223.078 303.301Z" fill="black"/>
<path d="M219.078 314.17C218.948 313.612 218.602 313.126 218.116 312.817C217.629 312.508 217.042 312.402 216.481 312.522V312.522C215.922 312.645 215.436 312.984 215.131 313.464C214.826 313.945 214.725 314.528 214.851 315.086L215.756 319.028L219.982 318.112L219.078 314.17Z" fill="#3F3D56"/>
<path d="M221.081 322.084L220.192 318.203L215.915 319.132L216.804 323.013C216.935 323.577 217.285 324.069 217.777 324.382C218.269 324.694 218.864 324.801 219.431 324.68V324.68C219.997 324.555 220.488 324.212 220.797 323.726C221.107 323.239 221.208 322.649 221.081 322.084Z" fill="#CC2900"/>
<path opacity="0.2" d="M221.017 323.353C220.675 323.827 220.192 324.171 219.657 324.32V324.32C219.065 324.482 218.457 324.397 217.966 324.083C217.475 323.769 217.14 323.251 217.035 322.643L216.364 318.697L216.135 318.761L216.846 322.942C216.951 323.55 217.286 324.068 217.777 324.382C218.268 324.696 218.876 324.781 219.468 324.619V324.619C219.788 324.53 220.092 324.37 220.359 324.152C220.626 323.933 220.851 323.661 221.017 323.353V323.353Z" fill="black"/>
<path d="M206.051 305.805C205.941 305.215 205.606 304.709 205.12 304.399C204.635 304.089 204.038 304 203.459 304.15V304.15C202.881 304.303 202.371 304.684 202.039 305.209C201.707 305.734 201.581 306.36 201.688 306.951L202.457 311.122L206.82 309.975L206.051 305.805Z" fill="#3F3D56"/>
<path d="M207.574 313.362L206.685 309.482L202.408 310.41L203.297 314.291C203.428 314.855 203.778 315.347 204.27 315.66C204.762 315.972 205.357 316.079 205.924 315.958V315.958C206.49 315.833 206.981 315.49 207.291 315.004C207.6 314.518 207.702 313.927 207.574 313.362V313.362Z" fill="#CC2900"/>
<path opacity="0.2" d="M207.325 314.943C207.026 315.346 206.582 315.623 206.076 315.723V315.723C205.517 315.831 204.926 315.716 204.434 315.405C203.941 315.093 203.586 314.609 203.447 314.058L202.553 310.487L202.337 310.529L203.284 314.314C203.423 314.864 203.778 315.348 204.271 315.66C204.763 315.972 205.354 316.087 205.913 315.978V315.978C206.215 315.918 206.498 315.795 206.742 315.616C206.985 315.438 207.184 315.208 207.325 314.943Z" fill="black"/>
<path d="M214.009 301.375C213.659 301.965 213.095 302.403 212.413 302.616C211.732 302.829 210.974 302.804 210.269 302.544C209.857 302.391 209.474 302.164 209.143 301.875C208.578 301.379 208.194 300.726 208.055 300.025C207.917 299.325 208.032 298.62 208.383 298.031C208.733 297.441 209.297 297.003 209.979 296.79C210.66 296.577 211.418 296.603 212.123 296.862C212.535 297.015 212.918 297.242 213.249 297.531C213.814 298.027 214.198 298.68 214.337 299.381C214.476 300.081 214.36 300.786 214.009 301.375V301.375Z" fill="#CC2900"/>
<path opacity="0.2" d="M212.943 297.349L209.963 302.362C209.585 302.229 209.237 302.022 208.94 301.753L211.92 296.741C212.298 296.873 212.646 297.08 212.943 297.349Z" fill="black"/>
<path d="M221.57 290.987C221.185 291.636 220.587 292.131 219.878 292.39C219.169 292.648 218.393 292.654 217.681 292.406C217.265 292.26 216.882 292.033 216.555 291.737C215.997 291.229 215.631 290.545 215.52 289.798C215.409 289.052 215.558 288.291 215.944 287.642C216.329 286.994 216.927 286.498 217.636 286.24C218.344 285.981 219.121 285.975 219.833 286.223C220.249 286.369 220.632 286.596 220.959 286.892C221.517 287.4 221.883 288.084 221.994 288.831C222.106 289.577 221.956 290.339 221.57 290.987V290.987Z" fill="#CC2900"/>
<path opacity="0.2" d="M221.163 287.014L217.885 292.528C217.503 292.402 217.155 292.195 216.862 291.92L220.14 286.406C220.523 286.531 220.87 286.738 221.163 287.014Z" fill="black"/>
<path d="M212.144 306.843C211.759 307.491 211.161 307.987 210.452 308.245C209.744 308.504 208.967 308.51 208.255 308.262C207.839 308.116 207.456 307.889 207.13 307.593C206.571 307.085 206.206 306.4 206.094 305.654C205.983 304.908 206.132 304.146 206.518 303.498C206.904 302.849 207.501 302.354 208.21 302.095C208.919 301.837 209.695 301.831 210.407 302.079C210.823 302.225 211.206 302.452 211.533 302.748C212.091 303.255 212.457 303.94 212.568 304.686C212.68 305.433 212.53 306.194 212.144 306.843V306.843Z" fill="#CC2900"/>
<path opacity="0.2" d="M211.738 302.87L208.46 308.384C208.077 308.258 207.73 308.051 207.437 307.775L210.715 302.262C211.097 302.387 211.445 302.594 211.738 302.87Z" fill="black"/>
<path d="M214.231 318.468C213.846 319.116 213.269 319.624 212.597 319.905C211.926 320.185 211.201 320.222 210.546 320.008C210.164 319.883 209.817 319.676 209.524 319.4C209.023 318.927 208.709 318.273 208.635 317.549C208.561 316.825 208.731 316.075 209.117 315.427C209.502 314.778 210.079 314.271 210.751 313.99C211.422 313.709 212.147 313.673 212.802 313.886C213.184 314.012 213.531 314.219 213.824 314.495C214.325 314.968 214.639 315.622 214.713 316.346C214.787 317.07 214.617 317.819 214.231 318.468V318.468Z" fill="#CC2900"/>
<path opacity="0.2" d="M213.825 314.495L210.547 320.009C210.165 319.883 209.817 319.676 209.525 319.4L212.802 313.887C213.185 314.012 213.532 314.219 213.825 314.495Z" fill="black"/>
<path d="M229.034 307.913C229.233 308.64 229.175 309.414 228.87 310.104C228.564 310.794 228.029 311.357 227.356 311.697C226.963 311.896 226.534 312.013 226.094 312.043C225.341 312.093 224.595 311.881 223.98 311.444C223.366 311.006 222.921 310.37 222.722 309.642C222.522 308.915 222.581 308.141 222.886 307.451C223.192 306.761 223.726 306.198 224.399 305.857C224.793 305.659 225.222 305.542 225.662 305.512C226.414 305.462 227.161 305.674 227.776 306.111C228.39 306.549 228.835 307.185 229.034 307.913V307.913Z" fill="#CC2900"/>
<path opacity="0.2" d="M225.701 305.557L227.289 311.643C226.903 311.843 226.483 311.963 226.054 311.997L224.466 305.912C224.852 305.712 225.272 305.591 225.701 305.557V305.557Z" fill="black"/>
<path d="M225.974 314.401C226.131 315.103 226.046 315.861 225.733 316.547C225.42 317.232 224.899 317.803 224.258 318.163C223.883 318.372 223.478 318.504 223.066 318.551C222.362 318.629 221.674 318.452 221.118 318.05C220.563 317.647 220.173 317.043 220.017 316.341C219.86 315.639 219.945 314.881 220.257 314.195C220.57 313.51 221.091 312.939 221.732 312.579C222.107 312.37 222.513 312.238 222.924 312.191C223.628 312.113 224.316 312.289 224.872 312.692C225.428 313.095 225.817 313.698 225.974 314.401V314.401Z" fill="#CC2900"/>
<path opacity="0.2" d="M222.647 312.049L224.663 318.389C224.255 318.575 223.807 318.679 223.344 318.693L221.328 312.353C221.736 312.166 222.185 312.063 222.647 312.049V312.049Z" fill="black"/>
<path d="M200.511 301.34C200.668 302.042 200.583 302.8 200.27 303.485C199.958 304.171 199.436 304.742 198.795 305.101C198.42 305.311 198.015 305.443 197.604 305.489C196.899 305.568 196.211 305.391 195.656 304.988C195.1 304.586 194.711 303.982 194.554 303.28C194.397 302.578 194.482 301.82 194.795 301.134C195.107 300.449 195.628 299.878 196.27 299.518C196.645 299.309 197.05 299.177 197.461 299.13C198.165 299.051 198.853 299.228 199.409 299.631C199.965 300.034 200.354 300.637 200.511 301.34V301.34Z" fill="#CC2900"/>
<path opacity="0.2" d="M197.1 298.938L198.689 305.023C198.303 305.223 197.883 305.344 197.454 305.378L195.866 299.292C196.251 299.092 196.671 298.972 197.1 298.938V298.938Z" fill="black"/>
<path opacity="0.2" d="M220.931 246.649L219.908 246.041L215.347 253.713L216.37 254.321L220.931 246.649Z" fill="black"/>
<path opacity="0.2" d="M227.07 250.298L226.047 249.69L221.486 257.362L222.509 257.97L227.07 250.298Z" fill="black"/>
<path opacity="0.2" d="M233.208 253.947L232.185 253.339L227.623 261.011L228.646 261.619L233.208 253.947Z" fill="black"/>
<path opacity="0.2" d="M239.345 257.596L237.811 256.684L233.249 264.356L234.784 265.268L239.345 257.596Z" fill="black"/>
<path opacity="0.2" d="M244.971 260.941L243.948 260.332L239.387 268.005L240.41 268.613L244.971 260.941Z" fill="black"/>
<path opacity="0.2" d="M251.109 264.59L250.086 263.981L245.525 271.654L246.548 272.262L251.109 264.59Z" fill="black"/>
<path opacity="0.2" d="M257.247 268.239L256.224 267.63L251.662 275.303L252.685 275.911L257.247 268.239Z" fill="black"/>
</svg>
