<svg xmlns="http://www.w3.org/2000/svg" viewBox="0 0 291.23 40.13"><defs><style>.cls-1{fill:none;stroke:#8d8d8f;stroke-width:0.93px;}.cls-2{fill:#3d658a;}.cls-3{fill:#25b4bd;}.cls-4{fill:#383a38;}</style></defs><g id="Capa_2" data-name="Capa 2"><g id="Capa_1-2" data-name="Capa 1"><line class="cls-1" x1="119.22" y1="40.13" x2="119.22" y2="5.83"/><path class="cls-2" d="M1.55,19.94l9.75-6.18c2.17-1.35,4.35-.29,4.35,2.13v7.19a1.35,1.35,0,0,0,1.44,1.4H19c6.08,0,11.35-4.39,11.35-11.88C30.33,4.88,24.24,0,17.09,0H2A2.11,2.11,0,0,0,0,2V19.27a1,1,0,0,0,1.55.67"/><path class="cls-3" d="M0,24.72v1.69a7.24,7.24,0,0,0,7.2,7.05h4a2.07,2.07,0,0,0,2.18-2.12v-14a1.16,1.16,0,0,0-1.84-1L.82,23.13A1.63,1.63,0,0,0,0,24.72"/><path class="cls-4" d="M47.44,15.83c0,2.16-1.21,3.58-4,3.58H41.54v3.34H38.93V12.22h4.48c2.79,0,4,1.4,4,3.61m-2.64,0c0-1-.45-1.47-1.55-1.47H41.54v2.95h1.71c1.1,0,1.55-.56,1.55-1.48"/><path class="cls-4" d="M54.12,14v2.58a4.37,4.37,0,0,0-.94-.08c-1.25,0-1.79.74-1.87,2.14v4.13H48.79V14h1.87l.52,1.73a2.56,2.56,0,0,1,2.39-1.85,1.57,1.57,0,0,1,.55.06"/><path class="cls-4" d="M55.05,18.37c0-2.79,1.4-4.47,4.31-4.47s4.3,1.68,4.3,4.47-1.42,4.52-4.3,4.52-4.31-1.69-4.31-4.52m6,0c0-1.66-.51-2.44-1.69-2.44s-1.72.78-1.72,2.44.53,2.53,1.72,2.53,1.69-.82,1.69-2.53"/><path class="cls-4" d="M72.75,14l-2.86,8.71H67.05L64.19,14h2.53l1.52,5.26c.09.39.17.8.23,1.18.06-.38.12-.79.21-1.18L70.22,14Z"/><path class="cls-4" d="M73.64,11.69h2.5V13.3h-2.5Zm0,2.35h2.5v8.71h-2.5Z"/><path class="cls-4" d="M86.08,17v5.77H83.56V17.63c0-1.1-.41-1.6-1.33-1.6s-1.58.59-1.65,1.9v4.82H78.07V14h1.86l.45,1.54a2.71,2.71,0,0,1,2.74-1.66c1.9,0,3,1,3,3.06"/><path class="cls-4" d="M87.48,18.4c0-2.78,1.52-4.5,4.43-4.5a5.06,5.06,0,0,1,3.08,1l-.8,2.06A2.76,2.76,0,0,0,92.11,16c-1.13,0-2,.74-2,2.37s1,2.4,2,2.4a2.8,2.8,0,0,0,2.08-.92l.8,2.06a5.13,5.13,0,0,1-3.08,1c-2.83,0-4.43-1.72-4.43-4.49"/><path class="cls-4" d="M96.17,11.69h2.5V13.3h-2.5Zm0,2.35h2.5v8.71h-2.5Z"/><path class="cls-4" d="M107.83,17.33v5.42H106l-.45-1.59a2.75,2.75,0,0,1-2.79,1.73,2.29,2.29,0,0,1-2.62-2.46c0-2.43,2.44-2.7,5.24-3v0c0-1.08-.74-1.51-1.88-1.51a3.57,3.57,0,0,0-2.43,1l-1-1.85a6.17,6.17,0,0,1,3.69-1.18c2.83,0,4.07,1.21,4.08,3.4m-2.47,2.12v-.62c-1.61.18-2.73.35-2.73,1.33,0,.54.27.89,1,.89a1.63,1.63,0,0,0,1.73-1.6"/><path class="cls-4" d="M45.51,25.39v8H44.22l-4.15-6.27c0,.39.08.89.08,1.51v4.76H38.86v-8h1.45l4,6.05c0-.46-.08-.93-.08-1.57V25.39Z"/><polygon class="cls-4" points="53.29 32.19 53.29 33.41 47.57 33.41 47.57 25.39 53.16 25.39 53.16 26.6 48.86 26.6 48.86 28.68 52.5 28.68 52.5 29.89 48.86 29.89 48.86 32.19 53.29 32.19"/><polygon class="cls-4" points="60.35 26.55 57.83 26.55 57.83 33.41 56.55 33.41 56.55 26.55 54 26.55 54 25.39 60.35 25.39 60.35 26.55"/><path class="cls-2" d="M70.9,27.38c0,2.21-1.49,3.48-3.72,3.48H65.76l-.54,2.55h-2l1.69-8h3.41c1.77,0,2.56.74,2.56,2m-2.05.39c0-.5-.31-.74-1-.74h-1.3l-.48,2.24h1.29a1.38,1.38,0,0,0,1.47-1.5"/><path class="cls-2" d="M78.45,26.78l-1.39,6.63H75.62l-.08-1.16a2.4,2.4,0,0,1-2.22,1.26,2,2,0,0,1-2.15-2.26c0-2.36,1.3-4.56,3.49-4.56,1.08,0,1.63.44,1.8,1.26L77,26.78Zm-2.67,3.57.12-.54c.18-1.07-.09-1.65-.91-1.65-1.2,0-1.81,1.49-1.81,2.77,0,.74.31,1.11,1,1.11.86,0,1.34-.64,1.61-1.69"/><path class="cls-2" d="M86.05,26.8l-1.19,5.61c-.4,1.88-1.51,2.82-3.78,2.82a5.23,5.23,0,0,1-2.78-.63l.84-1.51a2.84,2.84,0,0,0,1.91.66A1.73,1.73,0,0,0,83,32.24l.13-.57a2.66,2.66,0,0,1-2.08,1c-1.39,0-2.06-.71-2.06-1.92,0-2.13,1.32-4.05,3.34-4.05a1.59,1.59,0,0,1,1.75,1.25l.55-1.13Zm-2.53,2.95c.17-.83,0-1.59-.86-1.59-1.09,0-1.69,1.09-1.69,2.2,0,.6.3.95,1,.95.87,0,1.33-.62,1.54-1.56"/><path class="cls-2" d="M86.51,31.15c0-2.58,1.52-4.47,4.07-4.47,1.8,0,2.71.86,2.71,2.34,0,2.57-1.53,4.49-4.07,4.49-1.78,0-2.71-.86-2.71-2.36m4.79-1.92c0-.69-.31-1-1-1-1.21,0-1.8,1.39-1.8,2.68,0,.71.31,1.1,1,1.1,1.2,0,1.8-1.47,1.8-2.76"/><path class="cls-2" d="M93.49,32.88l.79-1.47a3.33,3.33,0,0,0,2,.6c.66,0,1.22-.24,1.22-.66,0-1.08-3.08-.13-3.08-2.34,0-1.44,1.37-2.33,3.23-2.33a5.3,5.3,0,0,1,2.52.6l-.78,1.46a3.44,3.44,0,0,0-1.86-.57c-.66,0-1.22.23-1.22.64,0,1,3.08,0,3.08,2.34,0,1.44-1.23,2.35-3.21,2.35a5.93,5.93,0,0,1-2.7-.62"/><path class="cls-2" d="M133,12.48a25.59,25.59,0,0,1,5.54-.63q4,0,6,1.69t2,5.25a6.56,6.56,0,0,1-1.94,5.14,7.93,7.93,0,0,1-5.54,1.77h-.63l-.55,0v5H133Zm8.16,8.61a3.15,3.15,0,0,0,.66-2.25,3.29,3.29,0,0,0-.69-2.33,2.79,2.79,0,0,0-2.12-.73,5.51,5.51,0,0,0-1.1.1v5.81a9.3,9.3,0,0,0,1.23.08A2.69,2.69,0,0,0,141.2,21.09Z"/><path class="cls-2" d="M157.88,30.63l-1-4.31h-5l-1,4.31h-4.76l4.56-18.53h7.36l4.56,18.53Zm-5-8.44H156l-1.56-6.91Z"/><path class="cls-2" d="M177.68,21.62v8.89a27.91,27.91,0,0,1-4.33.37c-3.32,0-5.81-.77-7.47-2.33s-2.49-3.94-2.49-7.18.84-5.56,2.54-7.14,4.17-2.38,7.42-2.38a17.68,17.68,0,0,1,2,.11,14.89,14.89,0,0,1,1.82.34v4.11c-.64-.14-1.21-.25-1.72-.32a11.46,11.46,0,0,0-1.56-.11,8,8,0,0,0-3.13.52,3.36,3.36,0,0,0-1.73,1.71,7.79,7.79,0,0,0-.55,3.23,6.22,6.22,0,0,0,1.08,4.1,4,4,0,0,0,3.2,1.24h.35V21.62Z"/><path class="cls-2" d="M183.72,29.88a6.77,6.77,0,0,1-2.81-3.12,12.78,12.78,0,0,1-1-5.39,12.74,12.74,0,0,1,1-5.39,6.75,6.75,0,0,1,2.81-3.13,9.55,9.55,0,0,1,8.51,0A6.75,6.75,0,0,1,195,16a12.74,12.74,0,0,1,1,5.39,12.78,12.78,0,0,1-1,5.39,6.77,6.77,0,0,1-2.81,3.12,9.55,9.55,0,0,1-8.51,0Zm6.51-4.29a8.33,8.33,0,0,0,.75-4.12,12.57,12.57,0,0,0-.34-3.28,3.39,3.39,0,0,0-1-1.75,2.55,2.55,0,0,0-1.65-.53,2.47,2.47,0,0,0-2.26,1.23,8.37,8.37,0,0,0-.75,4.13,12.88,12.88,0,0,0,.34,3.27,3.34,3.34,0,0,0,1,1.75,2.51,2.51,0,0,0,1.66.54A2.47,2.47,0,0,0,190.23,25.59Z"/><path class="cls-2" d="M207.7,29.88a6.75,6.75,0,0,1-2.8-3.12,12.62,12.62,0,0,1-1-5.39,12.59,12.59,0,0,1,1-5.39,6.73,6.73,0,0,1,2.8-3.13,9.57,9.57,0,0,1,8.52,0A6.73,6.73,0,0,1,219,16a12.59,12.59,0,0,1,1,5.39,12.62,12.62,0,0,1-1,5.39,6.75,6.75,0,0,1-2.8,3.12,9.57,9.57,0,0,1-8.52,0Zm6.52-4.29a8.33,8.33,0,0,0,.75-4.12,12.51,12.51,0,0,0-.35-3.28,3.38,3.38,0,0,0-1-1.75,2.58,2.58,0,0,0-1.66-.53,2.46,2.46,0,0,0-2.25,1.23,8.37,8.37,0,0,0-.75,4.13,12.44,12.44,0,0,0,.34,3.27,3.34,3.34,0,0,0,1,1.75,2.53,2.53,0,0,0,1.66.54A2.5,2.5,0,0,0,214.22,25.59Z"/><path class="cls-2" d="M232.79,12.1h4.58V30.63h-4.88l-5.61-10.3v10.3H222.3V12.1h4.88l5.61,10.31Z"/><path class="cls-2" d="M240.08,30.63V12.1H245V26.3h6.91v4.33Z"/><path class="cls-2" d="M253.55,30.63V12.1h4.91V30.63Z"/><path class="cls-2" d="M271.65,12.1h4.58V30.63h-4.88l-5.61-10.3v10.3h-4.58V12.1H266l5.61,10.31Z"/><path class="cls-2" d="M283.77,26.45h7.46v4.18H278.94V12.1h12.17v4.18h-7.34v2.81h6v4.18h-6Z"/></g></g></svg>