<svg width="654" height="555" viewBox="0 0 654 555" fill="none" xmlns="http://www.w3.org/2000/svg">
<path d="M631.112 232.351C598.406 274.195 536.692 283.777 485.629 269.203C468.921 264.318 452.802 257.604 437.565 249.184C428.715 244.376 420.076 239.101 411.614 233.481C409.532 232.104 407.45 230.705 405.389 229.279C403.984 228.319 402.584 227.347 401.189 226.363C383.714 214.062 366.924 200.569 350.415 187.153C309.205 153.662 266.865 119.14 216.232 103.16C205.801 99.8699 192.306 98.3306 185.855 107.171C180.259 114.847 183.675 125.714 188.41 133.947C205.977 164.444 237.864 183.7 269.78 198.507C301.695 213.314 335.502 225.311 363.246 246.96C390.991 268.61 412.171 303.019 406.497 337.752C401.606 367.684 377.179 392.003 348.778 402.602C320.377 413.193 288.702 411.718 259.179 404.84C229.656 397.955 201.63 385.944 173.137 375.593C155.958 369.344 133.501 365.022 122.102 379.321C112.475 391.403 118.009 410.461 129.732 420.516C141.454 430.571 157.321 433.939 172.46 436.961C219.465 446.352 266.47 455.741 313.475 465.128C327.894 468.002 342.652 471.01 355.215 478.664C367.778 486.311 377.913 499.671 377.553 514.379C377.193 528.876 366.585 541.685 353.584 548.103C340.591 554.515 325.586 555.503 311.11 554.811C256.864 552.213 101.345 465.989 64.0446 454.967C40.0762 447.892 13.8707 437.498 3.76366 414.634C-8.82048 386.17 11.8874 351.733 40.1538 338.734C68.4133 325.727 101.176 328.608 131.976 332.986C162.776 337.364 194.593 342.935 224.575 334.617C254.556 326.299 282.025 299.184 279.068 268.2C276.492 241.241 252.22 220.926 226.678 211.972C206.683 204.961 185.411 203.054 164.407 199.898C158.577 199.029 152.768 198.055 147.016 196.855C132.285 193.767 117.916 189.152 104.14 183.085C89.6845 176.733 75.9514 168.847 63.1765 159.565C52.9873 152.172 43.4652 143.9 34.7195 134.844C33.3855 133.46 32.0656 132.045 30.7599 130.6C29.5178 129.216 28.2896 127.804 27.09 126.363C11.478 107.701 -0.0546838 84.7168 3.40392 61.0338C6.85494 37.4143 25.2549 17.7491 47.1624 8.30133C59.824 2.84308 73.481 0.399932 87.3071 0.0468761C97.4169 -0.155269 107.524 0.572737 117.5 2.2217C163.666 9.60764 205.97 32.0479 245.925 56.3452C285.872 80.6426 324.803 107.312 368.229 124.633C411.656 141.961 461.089 149.298 505.144 133.629C549.199 117.968 585.391 75.2337 583.239 28.5103C612.458 53.6832 637.287 85.3241 648.284 122.296C659.28 159.268 654.861 201.96 631.112 232.351Z" fill="#3F3D56" fill-opacity="0.8"/>
<path d="M420.583 184.063C423.42 184.063 425.719 181.763 425.719 178.925C425.719 176.086 423.42 173.786 420.583 173.786C417.746 173.786 415.446 176.086 415.446 178.925C415.446 181.763 417.746 184.063 420.583 184.063Z" fill="#FF3300"/>
<path d="M601.969 119.083C606.354 119.083 609.91 115.526 609.91 111.138C609.91 106.75 606.354 103.193 601.969 103.193C597.583 103.193 594.027 106.75 594.027 111.138C594.027 115.526 597.583 119.083 601.969 119.083Z" fill="#FF6584"/>
<path d="M81.1017 364.037C82.7223 364.037 84.036 362.723 84.036 361.102C84.036 359.48 82.7223 358.166 81.1017 358.166C79.4812 358.166 78.1675 359.48 78.1675 361.102C78.1675 362.723 79.4812 364.037 81.1017 364.037Z" fill="#FF6584"/>
<path d="M165.324 192.342C165.326 194.889 165.018 197.426 164.407 199.898C158.577 199.029 152.768 198.055 147.016 196.854C132.285 193.767 117.916 189.152 104.14 183.085C106.355 175.93 111.062 169.806 117.405 165.825C123.748 161.845 131.308 160.272 138.711 161.392C146.114 162.513 152.871 166.251 157.754 171.93C162.637 177.609 165.323 184.851 165.324 192.342V192.342Z" fill="#FF6584"/>
<path d="M551.152 165.686C552.81 165.686 554.153 164.342 554.153 162.684C554.153 161.026 552.81 159.682 551.152 159.682C549.495 159.682 548.151 161.026 548.151 162.684C548.151 164.342 549.495 165.686 551.152 165.686Z" fill="#F0F0F0"/>
<path d="M276.603 496.147C278.261 496.147 279.604 494.803 279.604 493.145C279.604 491.486 278.261 490.142 276.603 490.142C274.946 490.142 273.602 491.486 273.602 493.145C273.602 494.803 274.946 496.147 276.603 496.147Z" fill="#F0F0F0"/>
<path d="M319.656 537.808C321.313 537.808 322.657 536.463 322.657 534.805C322.657 533.147 321.313 531.803 319.656 531.803C317.999 531.803 316.655 533.147 316.655 534.805C316.655 536.463 317.999 537.808 319.656 537.808Z" fill="#F0F0F0"/>
<path d="M53.5764 419.181C55.2338 419.181 56.5774 417.837 56.5774 416.178C56.5774 414.52 55.2338 413.176 53.5764 413.176C51.919 413.176 50.5754 414.52 50.5754 416.178C50.5754 417.837 51.919 419.181 53.5764 419.181Z" fill="#F0F0F0"/>
<path d="M201.085 363.398C202.742 363.398 204.086 362.054 204.086 360.395C204.086 358.737 202.742 357.393 201.085 357.393C199.427 357.393 198.084 358.737 198.084 360.395C198.084 362.054 199.427 363.398 201.085 363.398Z" fill="#F0F0F0"/>
<path d="M186.263 65.4183C187.921 65.4183 189.264 64.0741 189.264 62.4159C189.264 60.7578 187.921 59.4136 186.263 59.4136C184.606 59.4136 183.262 60.7578 183.262 62.4159C183.262 64.0741 184.606 65.4183 186.263 65.4183Z" fill="#F0F0F0"/>
<path d="M367.649 300.554C369.307 300.554 370.65 299.21 370.65 297.551C370.65 295.893 369.307 294.549 367.649 294.549C365.992 294.549 364.648 295.893 364.648 297.551C364.648 299.21 365.992 300.554 367.649 300.554Z" fill="#F0F0F0"/>
<path d="M390.234 352.806C391.892 352.806 393.235 351.462 393.235 349.804C393.235 348.146 391.892 346.801 390.234 346.801C388.577 346.801 387.233 348.146 387.233 349.804C387.233 351.462 388.577 352.806 390.234 352.806Z" fill="#F0F0F0"/>
<path d="M119.731 71.9997C119.753 87.159 116.173 102.106 109.285 115.609C108.375 117.389 107.41 119.137 106.392 120.856C96.3058 137.896 81.2159 151.412 63.1765 159.565C52.9873 152.172 43.4652 143.9 34.7196 134.844C33.3855 133.46 32.0656 132.045 30.7599 130.6C29.5179 129.216 28.2896 127.804 27.09 126.363C11.478 107.701 -0.0546602 84.7168 3.40394 61.0338C6.85497 37.4144 25.2549 17.7491 47.1624 8.30129C59.8241 2.84304 73.481 0.399931 87.3072 0.046875C98.1179 9.5985 106.64 21.4627 112.242 34.7594C112.948 36.4329 113.598 38.1275 114.212 39.8434C117.874 50.1679 119.741 61.0442 119.731 71.9997V71.9997Z" fill="#FF3300"/>
<path d="M163.489 76.9424C163.489 91.6508 149.134 105.293 123.062 115.369C117.846 117.389 112.263 119.217 106.391 120.856C84.4132 126.985 58.2569 130.381 30.7597 130.6C29.5177 129.216 28.2895 127.804 27.0898 126.363C27.3862 126.37 27.6826 126.37 27.979 126.37C57.8406 126.37 86.1708 122.586 109.285 115.609C113.555 114.317 117.649 112.919 121.537 111.415C145.506 102.158 159.254 89.5889 159.254 76.9424C159.254 64.296 145.506 51.7342 121.537 42.47C119.166 41.5521 116.724 40.6765 114.211 39.8433C113.597 38.1274 112.948 36.4328 112.242 34.7593C115.997 35.9314 119.604 37.1836 123.062 38.5158C149.134 48.592 163.489 62.2412 163.489 76.9424Z" fill="#E4E4E4"/>
<path d="M32.4028 24.4637C34.0602 24.4637 35.4038 23.1195 35.4038 21.4614C35.4038 19.8032 34.0602 18.459 32.4028 18.459C30.7454 18.459 29.4019 19.8032 29.4019 21.4614C29.4019 23.1195 30.7454 24.4637 32.4028 24.4637Z" fill="#F0F0F0"/>
<path d="M95.2175 43.5289C96.8749 43.5289 98.2185 42.1847 98.2185 40.5265C98.2185 38.8684 96.8749 37.5242 95.2175 37.5242C93.5601 37.5242 92.2166 38.8684 92.2166 40.5265C92.2166 42.1847 93.5601 43.5289 95.2175 43.5289Z" fill="#F0F0F0"/>
<path d="M62.7516 100.086C78.8689 100.086 91.9345 87.0141 91.9345 70.8893C91.9345 54.7644 78.8689 41.6926 62.7516 41.6926C46.6343 41.6926 33.5686 54.7644 33.5686 70.8893C33.5686 87.0141 46.6343 100.086 62.7516 100.086Z" fill="#F0F0F0"/>
<path opacity="0.3" d="M601.688 225.417C595.138 227.351 580.698 228.778 564.818 229.653C548.945 230.522 531.533 230.903 514.34 231.27C484.246 231.92 454.154 232.572 424.064 233.226C419.928 233.318 415.778 233.403 411.614 233.481C409.532 232.104 407.45 230.706 405.389 229.279C409.08 229.3 412.771 229.279 416.434 229.209C432.081 228.898 445.329 227.676 460.418 227.097C483.639 226.201 508.708 226.907 532.909 227.267C557.111 227.634 584.685 227.5 601.688 225.417Z" fill="#F0F0F0"/>
<path opacity="0.3" d="M139.804 448.005L43.8733 368.052L137.068 451.208C137.249 451.512 137.499 451.768 137.798 451.956C138.098 452.144 138.438 452.258 138.79 452.289C139.142 452.319 139.497 452.265 139.824 452.131C140.151 451.996 140.441 451.786 140.671 451.517C140.901 451.248 141.063 450.929 141.144 450.585C141.226 450.24 141.224 449.882 141.139 449.538C141.055 449.195 140.889 448.877 140.657 448.61C140.425 448.343 140.132 448.136 139.804 448.005H139.804Z" fill="#F0F0F0"/>
<path d="M66.9863 145.209C68.6437 145.209 69.9873 143.865 69.9873 142.207C69.9873 140.548 68.6437 139.204 66.9863 139.204C65.3289 139.204 63.9854 140.548 63.9854 142.207C63.9854 143.865 65.3289 145.209 66.9863 145.209Z" fill="#F0F0F0"/>
<path d="M319.025 490.094L331.438 490.094L337.343 442.193L319.023 442.194L319.025 490.094Z" fill="#FFB6B6"/>
<path d="M315.859 486.04L319.353 486.039L332.993 480.49L340.304 486.039H340.305C344.437 486.039 348.399 487.681 351.32 490.604C354.242 493.526 355.883 497.491 355.883 501.624V502.13L315.86 502.132L315.859 486.04Z" fill="#2F2E41"/>
<path d="M226.067 490.094L213.655 490.094L207.75 442.193L226.069 442.194L226.067 490.094Z" fill="#FFB6B6"/>
<path d="M229.233 502.132L189.209 502.13V501.624C189.21 497.491 190.851 493.526 193.773 490.604C196.694 487.681 200.656 486.039 204.788 486.039H204.789L212.1 480.49L225.74 486.039L229.234 486.04L229.233 502.132Z" fill="#2F2E41"/>
<path d="M270.544 122.996L257.975 132.571L224.588 141.417C224.588 141.417 236.552 225.417 230.905 231.066C225.259 236.715 230.351 236.866 229.217 244.205C228.082 251.543 223.561 270.917 223.561 270.917H323.209C323.209 270.917 324.012 258.876 319.1 256.269C314.188 253.661 323.628 241.49 319.613 239.456C315.599 237.421 321.245 219.768 321.245 219.768L333.482 161.973L300.935 136.497L295.985 124.565L270.544 122.996Z" fill="#FF3300"/>
<path d="M286.226 198.057C288.628 198.057 290.575 196.11 290.575 193.707C290.575 191.304 288.628 189.356 286.226 189.356C283.825 189.356 281.878 191.304 281.878 193.707C281.878 196.11 283.825 198.057 286.226 198.057Z" fill="#F2F2F2"/>
<path d="M223.561 270.917L219.452 376.778C219.452 376.778 201.71 454.966 204.791 457.022C207.873 459.077 209.179 471.334 209.179 471.334L226.643 473.389C226.643 473.389 226.643 465.167 230.752 462.084C234.861 459.001 272.871 314.084 272.871 314.084L309.953 454.197C309.953 454.197 310.881 462.084 313.963 462.084C317.045 462.084 318.072 473.389 318.072 473.389H335.536V462.084C335.536 462.084 343.383 459.595 340.302 451.373C337.22 443.15 323.209 270.917 323.209 270.917H223.561Z" fill="#2F2E41"/>
<path d="M283.595 116.688C295.226 116.688 304.655 107.255 304.655 95.6185C304.655 83.9822 295.226 74.5491 283.595 74.5491C271.964 74.5491 262.536 83.9822 262.536 95.6185C262.536 107.255 271.964 116.688 283.595 116.688Z" fill="#FFB6B6"/>
<path opacity="0.1" d="M319.613 190.237L323.722 193.32L325.777 178.931L319.613 190.237Z" fill="black"/>
<path d="M226.558 141.335C226.558 141.335 221.421 140.308 218.339 149.558C215.258 158.808 203.957 193.752 203.957 199.919C203.957 206.085 274.331 233.294 274.331 233.294L267.009 207.595L234.776 190.669L226.558 141.335Z" fill="#FF3300"/>
<path d="M277.595 229.484C284.222 229.484 289.594 224.11 289.594 217.48C289.594 210.851 284.222 205.477 277.595 205.477C270.969 205.477 265.597 210.851 265.597 217.48C265.597 224.11 270.969 229.484 277.595 229.484Z" fill="#FFB6B6"/>
<path opacity="0.1" d="M233.837 177.938L234.776 190.669L264.582 206.32L238.071 188.53L233.837 177.938Z" fill="black"/>
<path d="M305.49 179.753H305.103V169.156C305.103 168.35 304.945 167.552 304.637 166.808C304.329 166.064 303.877 165.388 303.308 164.818C302.738 164.249 302.063 163.797 301.319 163.489C300.575 163.181 299.778 163.022 298.973 163.022H276.531C275.726 163.022 274.929 163.181 274.185 163.489C273.441 163.797 272.765 164.249 272.196 164.818C271.626 165.388 271.175 166.064 270.867 166.808C270.559 167.552 270.4 168.35 270.4 169.156V227.294C270.4 228.1 270.559 228.897 270.867 229.642C271.175 230.386 271.626 231.062 272.196 231.631C272.765 232.201 273.441 232.653 274.185 232.961C274.928 233.269 275.726 233.428 276.531 233.428H298.973C299.778 233.428 300.575 233.269 301.319 232.961C302.062 232.653 302.738 232.201 303.308 231.632C303.877 231.062 304.328 230.386 304.637 229.642C304.945 228.897 305.103 228.1 305.103 227.294V187.297H305.49V179.753Z" fill="#F0F0F0"/>
<path d="M333.482 161.973C333.482 161.973 336.564 164.028 338.618 173.278C340.673 182.528 354.028 217.473 348.891 225.695C343.755 233.917 342.238 242.693 324.774 230.359L300.608 208.223L318.072 191.778L325.263 196.917L333.482 161.973Z" fill="#FF3300"/>
<path d="M288.026 188.935C290.863 188.935 293.162 186.634 293.162 183.796C293.162 180.957 290.863 178.657 288.026 178.657C285.189 178.657 282.889 180.957 282.889 183.796C282.889 186.634 285.189 188.935 288.026 188.935Z" fill="#FF3300"/>
<path d="M302.895 207.058C309.521 207.058 314.893 201.683 314.893 195.054C314.893 188.424 309.521 183.05 302.895 183.05C296.269 183.05 290.897 188.424 290.897 195.054C290.897 201.683 296.269 207.058 302.895 207.058Z" fill="#FFB6B6"/>
<path opacity="0.1" d="M233.271 216.36L267.714 231.603L232.314 224.681L233.271 216.36Z" fill="black"/>
<path d="M262.349 99.8173L259.457 88.8077C258.703 85.935 257.942 83.0043 258.111 80.039C258.281 77.0737 259.538 74.0137 262.035 72.4072C264.532 70.8008 268.344 71.1802 269.951 73.6778C270.256 69.6899 273.882 66.6224 277.73 65.5357C281.577 64.449 285.662 64.8787 289.655 65.0621C293.649 65.2454 297.864 65.1174 301.311 63.0911C301.574 63.8795 301.556 64.7345 301.262 65.5116C300.968 66.2888 300.414 66.9406 299.695 67.3569C300.552 67.5908 301.466 67.4903 302.251 67.0758C303.037 66.6613 303.636 65.9637 303.927 65.1242C303.953 67.4337 303.1 69.6668 301.54 71.37C303.028 70.6317 304.736 70.4735 306.334 70.9261C307.932 71.3786 309.304 72.4096 310.183 73.8185C311.942 76.8694 310.957 80.7009 309.928 84.0692L304.646 101.357C303.845 98.7286 303.694 95.9541 303.265 93.2403C302.837 90.5265 302.074 87.7552 300.284 85.6721C298.493 83.589 295.452 82.3826 292.908 83.4169C291.48 83.9972 290.392 85.1745 289.103 86.0194C286.459 87.7531 283.095 88.0017 279.954 87.6489C276.812 87.2962 273.751 86.4011 270.61 86.0436C268.643 85.8198 266.448 85.8791 264.964 87.1897C263.943 88.2506 263.269 89.597 263.031 91.0501C262.331 93.9465 262.056 96.9295 262.214 99.9053" fill="#2F2E41"/>
</svg>
